<?xml version="1.0" standalone="no"?>
<!DOCTYPE svg PUBLIC "-//W3C//DTD SVG 20010904//EN"
 "http://www.w3.org/TR/2001/REC-SVG-20010904/DTD/svg10.dtd">
<svg version="1.0" xmlns="http://www.w3.org/2000/svg"
 width="1516.000000pt" height="1516.000000pt" viewBox="0 0 1516.000000 1516.000000"
 preserveAspectRatio="xMidYMid meet">
<metadata>
Created by potrace 1.14, written by Peter Selinger 2001-2017
</metadata>
<g transform="translate(0.000000,1516.000000) scale(0.100000,-0.100000)"
fill="#000000" stroke="none">
<path d="M2464 9128 c-3 -4 -5 -471 -5 -1037 0 -661 -3 -1032 -9 -1036 -6 -3
-10 -12 -10 -18 0 -7 4 -6 10 3 7 10 10 -116 10 -370 -1 -212 0 -441 0 -510
l0 -125 425 1 c233 0 427 2 429 5 3 2 6 290 9 639 3 560 6 643 21 701 47 181
175 281 347 273 72 -4 138 -28 182 -68 28 -26 70 -105 83 -161 5 -16 10 -336
13 -709 l6 -680 427 0 c372 -1 427 1 430 14 7 30 1 1488 -6 1557 -9 89 -12
109 -36 203 -16 65 -73 205 -90 220 -3 3 -20 25 -39 50 -19 25 -57 64 -84 87
-73 62 -219 134 -272 135 -2 0 -28 6 -57 13 -32 9 -101 14 -182 13 -277 -2
-473 -79 -676 -266 l-65 -60 -5 567 -5 566 -423 0 c-233 1 -426 -3 -428 -7z"/>
<path d="M8299 9121 c0 -9 -1 -706 -2 -1548 -1 -1015 1 -1534 8 -1536 9 -2
870 -1 886 2 3 1 6 378 7 839 0 460 1 841 1 846 1 9 97 -130 372 -534 232
-341 264 -387 308 -450 40 -58 64 -94 104 -154 6 -10 20 -29 30 -41 9 -13 17
-28 17 -33 0 -6 4 -12 8 -14 4 -1 57 -75 117 -163 112 -165 196 -287 202 -294
2 -3 206 -5 453 -5 l450 -1 0 40 c1 55 1 2914 0 2996 l0 65 -450 0 -450 -1 0
-860 0 -860 -21 35 c-12 19 -25 37 -30 38 -5 2 -9 9 -9 16 0 7 -8 21 -17 32
-10 10 -44 57 -75 104 -31 47 -88 131 -127 188 -39 57 -71 107 -71 112 0 4 -4
10 -8 12 -5 2 -77 104 -161 228 -150 222 -306 451 -533 785 l-116 170 -446 1
c-397 0 -446 -2 -447 -15z"/>
<path d="M11900 9026 c-3 -735 0 -2978 3 -2983 6 -9 1691 -8 1792 1 39 3 79 8
90 10 12 2 51 7 87 10 37 4 75 8 85 10 10 2 41 7 68 10 326 44 564 222 678
507 24 60 32 88 53 194 24 122 2 321 -51 453 -49 121 -158 256 -246 302 -13 7
-27 17 -30 22 -6 9 -181 87 -209 93 -8 2 -35 10 -60 17 l-44 14 49 19 c165 62
295 173 377 320 47 87 78 223 77 346 -1 77 -5 112 -25 198 -9 43 -55 144 -90
199 -42 65 -143 168 -204 209 -76 51 -199 103 -300 128 -3 1 -32 5 -65 9 -33
5 -69 11 -80 13 -11 3 -455 6 -987 7 l-968 2 0 -110z m1525 -530 c173 -31 246
-106 251 -261 5 -134 -37 -219 -131 -268 -74 -38 -143 -45 -419 -44 l-261 2
-1 280 c0 154 2 286 4 293 6 17 457 16 557 -2z m107 -1181 c151 -32 228 -94
264 -215 10 -33 6 -160 -5 -174 -4 -6 -11 -22 -14 -36 -9 -39 -69 -103 -124
-132 -80 -44 -175 -54 -498 -56 l-290 -1 1 307 c1 169 2 311 3 315 2 14 591 7
663 -8z"/>
<path d="M1515 9104 c-151 -77 -205 -104 -208 -102 -2 2 -10 -2 -18 -9 -8 -6
-104 -57 -214 -114 -110 -56 -236 -121 -280 -144 l-80 -41 -3 -206 -2 -206
-158 1 -157 1 -3 -317 -2 -317 160 0 160 0 1 -442 c1 -443 2 -479 13 -616 11
-137 49 -266 104 -352 82 -128 195 -198 382 -235 118 -24 387 -24 575 -1 85
11 274 44 284 51 7 4 9 27 6 58 -6 55 -23 208 -30 267 -2 19 -7 69 -11 110 -4
41 -8 82 -10 90 -1 8 -3 27 -3 41 l-1 26 -90 -23 c-161 -42 -248 -38 -303 14
-48 45 -50 73 -52 559 l-1 453 236 2 235 3 2 313 c2 288 1 312 -15 313 -9 0
-116 1 -237 1 l-220 1 0 414 c0 228 -2 419 -5 424 -3 4 -28 -3 -55 -17z"/>
<path d="M6310 8323 c-180 -29 -227 -38 -260 -51 -14 -5 -29 -10 -33 -10 -7 0
-46 -13 -92 -32 -295 -119 -529 -367 -623 -660 -48 -149 -57 -216 -57 -415 0
-146 5 -210 19 -275 38 -179 96 -308 202 -455 129 -179 315 -313 509 -370 73
-21 98 -26 230 -50 132 -23 516 -24 675 -1 408 59 630 196 854 525 32 46 56
85 54 86 -2 2 -37 6 -78 10 -41 3 -93 8 -115 10 -22 3 -67 7 -100 10 -61 5
-160 14 -225 21 -19 2 -67 6 -105 9 -39 3 -80 7 -92 9 -11 3 -45 6 -75 7 -53
2 -54 2 -108 -55 -135 -143 -367 -186 -537 -99 -80 40 -154 120 -187 201 -29
69 -59 200 -47 205 3 2 392 3 864 3 l859 -1 -6 163 c-7 204 -28 346 -72 480
-69 215 -192 388 -367 515 -166 121 -324 177 -616 216 -64 8 -424 12 -471 4z
m359 -516 c83 -22 182 -100 220 -175 29 -57 60 -160 67 -219 l5 -53 -33 -1
c-190 -3 -801 1 -806 6 -12 12 27 169 57 230 75 152 202 226 376 221 50 -2
101 -6 114 -9z"/>
</g>
</svg>
