<svg xmlns="http://www.w3.org/2000/svg" xmlns:xlink="http://www.w3.org/1999/xlink" width="500" zoomAndPan="magnify" viewBox="0 0 375 374.999991" height="500" preserveAspectRatio="xMidYMid meet" version="1.2"><defs><clipPath id="88fd4a4731"><path d="M 126.21875 114.261719 L 134.46875 114.261719 L 134.46875 118.761719 L 126.21875 118.761719 Z M 126.21875 114.261719 "/></clipPath><clipPath id="a0b2df9104"><path d="M 126.21875 116.511719 C 126.21875 117.753906 127.226562 118.761719 128.46875 118.761719 L 132.207031 118.761719 C 133.449219 118.761719 134.457031 117.753906 134.457031 116.511719 C 134.457031 115.269531 133.449219 114.261719 132.207031 114.261719 L 128.46875 114.261719 C 127.226562 114.261719 126.21875 115.269531 126.21875 116.511719 Z M 126.21875 116.511719 "/></clipPath><clipPath id="d549161668"><path d="M 244.300781 114.277344 L 252.550781 114.277344 L 252.550781 118.777344 L 244.300781 118.777344 Z M 244.300781 114.277344 "/></clipPath><clipPath id="310412b4ea"><path d="M 244.300781 116.527344 C 244.300781 117.769531 245.308594 118.777344 246.550781 118.777344 L 250.289062 118.777344 C 251.53125 118.777344 252.539062 117.769531 252.539062 116.527344 C 252.539062 115.285156 251.53125 114.277344 250.289062 114.277344 L 246.550781 114.277344 C 245.308594 114.277344 244.300781 115.285156 244.300781 116.527344 Z M 244.300781 116.527344 "/></clipPath></defs><g id="e5b513ffdc"><g style="fill:#000000;fill-opacity:1;"><g transform="translate(63.324734, 230.242938)"><path style="stroke:none" d="M 9.6875 0 L 4.484375 0 L 4.484375 -43.234375 L 12.078125 -43.234375 L 31.515625 -5.21875 L 31.515625 -43.234375 L 36.671875 -43.234375 L 36.671875 0 L 29.078125 0 L 9.6875 -37.90625 Z M 9.6875 0 "/></g></g><g style="fill:#000000;fill-opacity:1;"><g transform="translate(104.525167, 230.242938)"><path style="stroke:none" d="M 12.921875 0.5625 C 9.785156 0.5625 7.300781 -0.226562 5.46875 -1.8125 C 3.632812 -3.394531 2.71875 -5.566406 2.71875 -8.328125 C 2.71875 -11.046875 3.738281 -13.203125 5.78125 -14.796875 C 7.445312 -16.117188 9.847656 -17.097656 12.984375 -17.734375 L 24.140625 -19.890625 C 24.140625 -22.347656 23.5 -24.21875 22.21875 -25.5 C 20.78125 -26.9375 18.851562 -27.65625 16.4375 -27.65625 C 14.507812 -27.65625 12.835938 -27.144531 11.421875 -26.125 C 10.003906 -25.101562 9.109375 -23.707031 8.734375 -21.9375 L 3.90625 -21.9375 C 4.289062 -24.125 5.09375 -25.953125 6.3125 -27.421875 C 7.539062 -28.898438 9.039062 -30.015625 10.8125 -30.765625 C 12.59375 -31.523438 14.484375 -31.90625 16.484375 -31.90625 C 18.304688 -31.90625 20.019531 -31.640625 21.625 -31.109375 C 23.226562 -30.578125 24.578125 -29.765625 25.671875 -28.671875 C 26.765625 -27.617188 27.535156 -26.429688 27.984375 -25.109375 C 28.441406 -23.785156 28.71875 -22.523438 28.8125 -21.328125 C 28.90625 -20.140625 28.953125 -19.1875 28.953125 -18.46875 L 28.953125 0 L 24.140625 0 L 24.140625 -4.9375 C 23.046875 -3.34375 21.78125 -2.113281 20.34375 -1.25 C 19.289062 -0.601562 18.148438 -0.140625 16.921875 0.140625 C 15.691406 0.421875 14.359375 0.5625 12.921875 0.5625 Z M 13.484375 -3.6875 C 15.410156 -3.6875 17.070312 -4.046875 18.46875 -4.765625 C 20.695312 -5.929688 22.207031 -7.441406 23 -9.296875 C 23.800781 -11.148438 24.203125 -13.378906 24.203125 -15.984375 L 14 -13.9375 C 11.65625 -13.488281 9.9375 -12.753906 8.84375 -11.734375 C 7.96875 -10.859375 7.53125 -9.757812 7.53125 -8.4375 C 7.53125 -7.007812 8.066406 -5.859375 9.140625 -4.984375 C 10.222656 -4.117188 11.671875 -3.6875 13.484375 -3.6875 Z M 13.484375 -3.6875 "/></g></g><g style="fill:#000000;fill-opacity:1;"><g transform="translate(137.168155, 230.242938)"><path style="stroke:none" d="M 16.65625 0 L 12.6875 0 L 1.140625 -31.34375 L 6.453125 -31.34375 L 14.671875 -8.15625 L 23.015625 -31.34375 L 28.28125 -31.34375 Z M 16.65625 0 "/></g></g><g style="fill:#000000;fill-opacity:1;"><g transform="translate(166.580843, 230.242938)"><path style="stroke:none" d="M 14 0 L 11.328125 0 C 9.785156 0 8.457031 -0.210938 7.34375 -0.640625 C 6.226562 -1.078125 5.375 -1.875 4.78125 -3.03125 C 4.195312 -4.1875 3.90625 -5.800781 3.90625 -7.875 L 3.90625 -43.234375 L 8.734375 -43.234375 L 8.734375 -8.609375 C 8.734375 -7.671875 8.796875 -6.878906 8.921875 -6.234375 C 9.054688 -5.585938 9.390625 -5.09375 9.921875 -4.75 C 10.453125 -4.414062 11.300781 -4.25 12.46875 -4.25 L 14 -4.25 Z M 14 0 "/></g></g><g style="fill:#000000;fill-opacity:1;"><g transform="translate(182.278942, 230.242938)"><path style="stroke:none" d="M 12.921875 0.5625 C 9.785156 0.5625 7.300781 -0.226562 5.46875 -1.8125 C 3.632812 -3.394531 2.71875 -5.566406 2.71875 -8.328125 C 2.71875 -11.046875 3.738281 -13.203125 5.78125 -14.796875 C 7.445312 -16.117188 9.847656 -17.097656 12.984375 -17.734375 L 24.140625 -19.890625 C 24.140625 -22.347656 23.5 -24.21875 22.21875 -25.5 C 20.78125 -26.9375 18.851562 -27.65625 16.4375 -27.65625 C 14.507812 -27.65625 12.835938 -27.144531 11.421875 -26.125 C 10.003906 -25.101562 9.109375 -23.707031 8.734375 -21.9375 L 3.90625 -21.9375 C 4.289062 -24.125 5.09375 -25.953125 6.3125 -27.421875 C 7.539062 -28.898438 9.039062 -30.015625 10.8125 -30.765625 C 12.59375 -31.523438 14.484375 -31.90625 16.484375 -31.90625 C 18.304688 -31.90625 20.019531 -31.640625 21.625 -31.109375 C 23.226562 -30.578125 24.578125 -29.765625 25.671875 -28.671875 C 26.765625 -27.617188 27.535156 -26.429688 27.984375 -25.109375 C 28.441406 -23.785156 28.71875 -22.523438 28.8125 -21.328125 C 28.90625 -20.140625 28.953125 -19.1875 28.953125 -18.46875 L 28.953125 0 L 24.140625 0 L 24.140625 -4.9375 C 23.046875 -3.34375 21.78125 -2.113281 20.34375 -1.25 C 19.289062 -0.601562 18.148438 -0.140625 16.921875 0.140625 C 15.691406 0.421875 14.359375 0.5625 12.921875 0.5625 Z M 13.484375 -3.6875 C 15.410156 -3.6875 17.070312 -4.046875 18.46875 -4.765625 C 20.695312 -5.929688 22.207031 -7.441406 23 -9.296875 C 23.800781 -11.148438 24.203125 -13.378906 24.203125 -15.984375 L 14 -13.9375 C 11.65625 -13.488281 9.9375 -12.753906 8.84375 -11.734375 C 7.96875 -10.859375 7.53125 -9.757812 7.53125 -8.4375 C 7.53125 -7.007812 8.066406 -5.859375 9.140625 -4.984375 C 10.222656 -4.117188 11.671875 -3.6875 13.484375 -3.6875 Z M 13.484375 -3.6875 "/></g></g><g style="fill:#000000;fill-opacity:1;"><g transform="translate(214.92193, 230.242938)"><path style="stroke:none" d="M 8.890625 0 L 4.078125 0 L 4.078125 -43.234375 L 8.890625 -43.234375 L 8.890625 -18.8125 L 22.671875 -31.34375 L 29.359375 -31.34375 L 14 -17.5625 L 30.765625 0 L 24.203125 0 L 8.890625 -16.375 Z M 8.890625 0 "/></g></g><g style="fill:#000000;fill-opacity:1;"><g transform="translate(246.318142, 230.242938)"><path style="stroke:none" d="M 8.890625 0 L 4.078125 0 L 4.078125 -43.234375 L 8.890625 -43.234375 L 8.890625 -26.46875 C 10.484375 -28.507812 12.003906 -29.925781 13.453125 -30.71875 C 14.910156 -31.507812 16.488281 -31.90625 18.1875 -31.90625 C 20.644531 -31.90625 22.609375 -31.441406 24.078125 -30.515625 C 25.554688 -29.585938 26.671875 -28.40625 27.421875 -26.96875 C 28.179688 -25.570312 28.617188 -24.117188 28.734375 -22.609375 C 28.847656 -21.097656 28.90625 -19.851562 28.90625 -18.875 L 28.90625 0 L 24.078125 0 L 24.078125 -18.875 C 24.078125 -22.195312 23.472656 -24.539062 22.265625 -25.90625 C 21.210938 -27.070312 19.609375 -27.65625 17.453125 -27.65625 C 16.171875 -27.65625 15.054688 -27.445312 14.109375 -27.03125 C 13.160156 -26.613281 12.367188 -26.046875 11.734375 -25.328125 C 10.710938 -24.273438 9.984375 -22.820312 9.546875 -20.96875 C 9.109375 -19.113281 8.890625 -16.582031 8.890625 -13.375 Z M 8.890625 0 "/></g></g><g style="fill:#000000;fill-opacity:1;"><g transform="translate(279.017789, 230.242938)"><path style="stroke:none" d="M 12.921875 0.5625 C 9.785156 0.5625 7.300781 -0.226562 5.46875 -1.8125 C 3.632812 -3.394531 2.71875 -5.566406 2.71875 -8.328125 C 2.71875 -11.046875 3.738281 -13.203125 5.78125 -14.796875 C 7.445312 -16.117188 9.847656 -17.097656 12.984375 -17.734375 L 24.140625 -19.890625 C 24.140625 -22.347656 23.5 -24.21875 22.21875 -25.5 C 20.78125 -26.9375 18.851562 -27.65625 16.4375 -27.65625 C 14.507812 -27.65625 12.835938 -27.144531 11.421875 -26.125 C 10.003906 -25.101562 9.109375 -23.707031 8.734375 -21.9375 L 3.90625 -21.9375 C 4.289062 -24.125 5.09375 -25.953125 6.3125 -27.421875 C 7.539062 -28.898438 9.039062 -30.015625 10.8125 -30.765625 C 12.59375 -31.523438 14.484375 -31.90625 16.484375 -31.90625 C 18.304688 -31.90625 20.019531 -31.640625 21.625 -31.109375 C 23.226562 -30.578125 24.578125 -29.765625 25.671875 -28.671875 C 26.765625 -27.617188 27.535156 -26.429688 27.984375 -25.109375 C 28.441406 -23.785156 28.71875 -22.523438 28.8125 -21.328125 C 28.90625 -20.140625 28.953125 -19.1875 28.953125 -18.46875 L 28.953125 0 L 24.140625 0 L 24.140625 -4.9375 C 23.046875 -3.34375 21.78125 -2.113281 20.34375 -1.25 C 19.289062 -0.601562 18.148438 -0.140625 16.921875 0.140625 C 15.691406 0.421875 14.359375 0.5625 12.921875 0.5625 Z M 13.484375 -3.6875 C 15.410156 -3.6875 17.070312 -4.046875 18.46875 -4.765625 C 20.695312 -5.929688 22.207031 -7.441406 23 -9.296875 C 23.800781 -11.148438 24.203125 -13.378906 24.203125 -15.984375 L 14 -13.9375 C 11.65625 -13.488281 9.9375 -12.753906 8.84375 -11.734375 C 7.96875 -10.859375 7.53125 -9.757812 7.53125 -8.4375 C 7.53125 -7.007812 8.066406 -5.859375 9.140625 -4.984375 C 10.222656 -4.117188 11.671875 -3.6875 13.484375 -3.6875 Z M 13.484375 -3.6875 "/></g></g><path style="fill:none;stroke-width:12;stroke-linecap:round;stroke-linejoin:miter;stroke:#000000;stroke-opacity:1;stroke-miterlimit:4;" d="M 6.001989 6.00034 L 54.206298 6.00034 " transform="matrix(0,-0.747469,0.747469,0,182.999304,359.501928)"/><path style="fill:none;stroke-width:12;stroke-linecap:round;stroke-linejoin:miter;stroke:#000000;stroke-opacity:1;stroke-miterlimit:4;" d="M 5.998785 6.001738 L 105.602958 6.001738 " transform="matrix(0.75,0,0,0.75,145.649349,355.002603)"/><g clip-rule="nonzero" clip-path="url(#88fd4a4731)"><g clip-rule="nonzero" clip-path="url(#a0b2df9104)"><path style=" stroke:none;fill-rule:nonzero;fill:#000000;fill-opacity:1;" d="M 126.25 114.292969 L 134.414062 114.292969 L 134.414062 118.730469 L 126.25 118.730469 Z M 126.25 114.292969 "/><path style=" stroke:none;fill-rule:nonzero;fill:#000000;fill-opacity:1;" d="M 134.414062 118.761719 L 126.25 118.761719 C 126.230469 118.761719 126.21875 118.746094 126.21875 118.730469 L 126.21875 114.292969 C 126.21875 114.277344 126.230469 114.265625 126.25 114.265625 L 134.414062 114.265625 C 134.433594 114.265625 134.445312 114.277344 134.445312 114.292969 L 134.445312 118.730469 C 134.445312 118.746094 134.433594 118.761719 134.414062 118.761719 Z M 126.277344 118.699219 L 134.386719 118.699219 L 134.386719 114.324219 L 126.277344 114.324219 Z M 126.277344 118.699219 "/></g></g><path style="fill:none;stroke-width:7;stroke-linecap:round;stroke-linejoin:miter;stroke:#000000;stroke-opacity:1;stroke-miterlimit:4;" d="M 68.094359 3.498741 L 35.798207 3.498741 C 27.233251 3.498741 19.018204 6.903834 12.960064 12.961974 C 6.901925 19.014891 3.502055 27.229937 3.502055 35.794893 L 3.502055 145.917251 " transform="matrix(0.747961,0,0,0.747961,210.732163,47.96511)"/><path style="fill:none;stroke-width:7;stroke-linecap:round;stroke-linejoin:round;stroke:#000000;stroke-opacity:1;stroke-miterlimit:4;" d="M 92.593267 3.498741 C 92.593267 9.300977 87.892986 14.001258 82.095973 14.001258 C 76.293738 14.001258 71.593457 9.300977 71.593457 3.498741 C 71.593457 -2.298272 76.293738 -6.998553 82.095973 -6.998553 C 87.892986 -6.998553 92.593267 -2.298272 92.593267 3.498741 " transform="matrix(0.747961,0,0,0.747961,210.732163,47.96511)"/><path style="fill:none;stroke-width:7;stroke-linecap:round;stroke-linejoin:miter;stroke:#000000;stroke-opacity:1;stroke-miterlimit:4;" d="M 28.000494 3.501528 L 192.115088 3.501528 " transform="matrix(0,0.75,-0.75,0,190.122239,13.319943)"/><path style="fill:none;stroke-width:7;stroke-linecap:round;stroke-linejoin:round;stroke:#000000;stroke-opacity:1;stroke-miterlimit:4;" d="M 3.500493 3.501528 C 3.500493 -2.300556 8.19841 -6.998473 14.000493 -6.998473 C 19.797369 -6.998473 24.500494 -2.300556 24.500494 3.501528 C 24.500494 9.298403 19.797369 14.001528 14.000493 14.001528 C 8.19841 14.001528 3.500493 9.298403 3.500493 3.501528 " transform="matrix(0,0.75,-0.75,0,190.122239,13.319943)"/><g clip-rule="nonzero" clip-path="url(#d549161668)"><g clip-rule="nonzero" clip-path="url(#310412b4ea)"><path style=" stroke:none;fill-rule:nonzero;fill:#070404;fill-opacity:1;" d="M 244.332031 114.308594 L 252.5 114.308594 L 252.5 118.746094 L 244.332031 118.746094 Z M 244.332031 114.308594 "/><path style=" stroke:none;fill-rule:nonzero;fill:#070404;fill-opacity:1;" d="M 252.5 118.773438 L 244.332031 118.773438 C 244.316406 118.773438 244.300781 118.761719 244.300781 118.746094 L 244.300781 114.308594 C 244.300781 114.292969 244.316406 114.277344 244.332031 114.277344 L 252.5 114.277344 C 252.515625 114.277344 252.527344 114.292969 252.527344 114.308594 L 252.527344 118.746094 C 252.527344 118.761719 252.515625 118.773438 252.5 118.773438 Z M 244.363281 118.714844 L 252.46875 118.714844 L 252.46875 114.339844 L 244.363281 114.339844 Z M 244.363281 118.714844 "/></g></g><path style="fill:none;stroke-width:7;stroke-linecap:round;stroke-linejoin:miter;stroke:#000000;stroke-opacity:1;stroke-miterlimit:4;" d="M 28.000137 3.500064 L 59.969608 3.500064 C 68.451197 3.500064 76.582221 6.869678 82.578459 12.865916 C 88.574697 18.862154 91.944311 26.993178 91.944311 35.469535 L 91.944311 145.918563 " transform="matrix(0.746562,0,0,0.746562,93.213354,47.96511)"/><path style="fill:none;stroke-width:7;stroke-linecap:round;stroke-linejoin:round;stroke:#000000;stroke-opacity:1;stroke-miterlimit:4;" d="M 3.502418 3.500064 C 3.502418 -2.297345 8.20104 -7.0012 13.99845 -7.0012 C 19.801092 -7.0012 24.499715 -2.297345 24.499715 3.500064 C 24.499715 9.297474 19.801092 14.001329 13.99845 14.001329 C 8.20104 14.001329 3.502418 9.297474 3.502418 3.500064 " transform="matrix(0.746562,0,0,0.746562,93.213354,47.96511)"/><path style="fill:none;stroke-width:6;stroke-linecap:butt;stroke-linejoin:miter;stroke:#000000;stroke-opacity:1;stroke-miterlimit:4;" d="M 332.238449 3.001043 L 481.16548 3.001043 C 488.344821 3.001043 494.164359 8.820581 494.164359 15.999921 L 494.164359 255.679444 C 494.164359 262.858784 488.344821 268.678322 481.16548 268.678322 L 15.998398 268.678322 C 8.819057 268.678322 2.999519 262.858784 2.999519 255.679444 L 2.999519 15.999921 C 2.999519 8.820581 8.819057 3.001043 15.998398 3.001043 L 170.10414 3.001043 " transform="matrix(0.749764,0,0,0.749764,1.04013,114.257738)"/><g style="fill:#000000;fill-opacity:1;"><g transform="translate(62.703641, 270.466828)"><path style="stroke:none" d="M 13.71875 0 L 10.25 0 L 10.25 -25.625 L 0.53125 -25.625 L 0.53125 -28.75 L 23.484375 -28.75 L 23.484375 -25.625 L 13.71875 -25.625 Z M 13.71875 0 "/></g></g><g style="fill:#000000;fill-opacity:1;"><g transform="translate(86.70309, 270.466828)"><path style="stroke:none" d="M 11.953125 0.375 C 9.960938 0.375 8.203125 -0.09375 6.671875 -1.03125 C 5.140625 -1.976562 3.945312 -3.257812 3.09375 -4.875 C 2.238281 -6.5 1.8125 -8.328125 1.8125 -10.359375 C 1.8125 -12.242188 2.195312 -14.015625 2.96875 -15.671875 C 3.75 -17.335938 4.894531 -18.675781 6.40625 -19.6875 C 7.914062 -20.707031 9.738281 -21.21875 11.875 -21.21875 C 13.632812 -21.21875 15.269531 -20.828125 16.78125 -20.046875 C 18.300781 -19.265625 19.539062 -18.109375 20.5 -16.578125 C 21.457031 -15.046875 21.9375 -13.160156 21.9375 -10.921875 L 21.9375 -9.796875 L 4.96875 -9.796875 C 5.019531 -9.066406 5.160156 -8.375 5.390625 -7.71875 C 5.921875 -6.113281 6.757812 -4.832031 7.90625 -3.875 C 9.0625 -2.925781 10.394531 -2.453125 11.90625 -2.453125 C 13.488281 -2.453125 14.804688 -2.867188 15.859375 -3.703125 C 16.921875 -4.546875 17.675781 -5.546875 18.125 -6.703125 L 21.5625 -6.703125 C 21.132812 -5.398438 20.492188 -4.210938 19.640625 -3.140625 C 18.785156 -2.078125 17.722656 -1.222656 16.453125 -0.578125 C 15.179688 0.0546875 13.679688 0.375 11.953125 0.375 Z M 5.28125 -12.625 L 18.5 -12.625 C 18.476562 -12.976562 18.425781 -13.328125 18.34375 -13.671875 C 18.269531 -14.023438 18.171875 -14.351562 18.046875 -14.65625 C 17.492188 -15.863281 16.671875 -16.785156 15.578125 -17.421875 C 14.484375 -18.066406 13.273438 -18.390625 11.953125 -18.390625 C 10.566406 -18.390625 9.351562 -18.0625 8.3125 -17.40625 C 7.269531 -16.757812 6.457031 -15.84375 5.875 -14.65625 C 5.726562 -14.332031 5.601562 -13.992188 5.5 -13.640625 C 5.40625 -13.285156 5.332031 -12.945312 5.28125 -12.625 Z M 5.28125 -12.625 "/></g></g><g style="fill:#000000;fill-opacity:1;"><g transform="translate(110.401125, 270.466828)"><path style="stroke:none" d="M 11.90625 0.375 C 9.945312 0.375 8.207031 -0.0859375 6.6875 -1.015625 C 5.164062 -1.941406 3.972656 -3.226562 3.109375 -4.875 C 2.242188 -6.519531 1.8125 -8.398438 1.8125 -10.515625 C 1.8125 -12.578125 2.238281 -14.410156 3.09375 -16.015625 C 3.945312 -17.617188 5.132812 -18.882812 6.65625 -19.8125 C 8.175781 -20.75 9.925781 -21.21875 11.90625 -21.21875 C 14.25 -21.21875 16.226562 -20.613281 17.84375 -19.40625 C 19.46875 -18.195312 20.515625 -16.585938 20.984375 -14.578125 L 17.5625 -14.578125 C 17.15625 -15.765625 16.441406 -16.695312 15.421875 -17.375 C 14.410156 -18.050781 13.238281 -18.390625 11.90625 -18.390625 C 10.601562 -18.390625 9.429688 -18.050781 8.390625 -17.375 C 7.347656 -16.695312 6.523438 -15.765625 5.921875 -14.578125 C 5.316406 -13.398438 5.015625 -12.046875 5.015625 -10.515625 C 5.015625 -8.929688 5.316406 -7.535156 5.921875 -6.328125 C 6.523438 -5.117188 7.347656 -4.171875 8.390625 -3.484375 C 9.429688 -2.796875 10.601562 -2.453125 11.90625 -2.453125 C 13.363281 -2.453125 14.613281 -2.835938 15.65625 -3.609375 C 16.695312 -4.390625 17.382812 -5.421875 17.71875 -6.703125 L 21.140625 -6.703125 C 20.691406 -4.492188 19.625 -2.757812 17.9375 -1.5 C 16.257812 -0.25 14.25 0.375 11.90625 0.375 Z M 11.90625 0.375 "/></g></g><g style="fill:#000000;fill-opacity:1;"><g transform="translate(133.081917, 270.466828)"><path style="stroke:none" d="M 5.921875 0 L 2.71875 0 L 2.71875 -28.75 L 5.921875 -28.75 L 5.921875 -17.59375 C 6.972656 -18.957031 7.984375 -19.898438 8.953125 -20.421875 C 9.921875 -20.953125 10.96875 -21.21875 12.09375 -21.21875 C 13.726562 -21.21875 15.035156 -20.910156 16.015625 -20.296875 C 16.992188 -19.679688 17.734375 -18.894531 18.234375 -17.9375 C 18.742188 -17.007812 19.035156 -16.039062 19.109375 -15.03125 C 19.179688 -14.03125 19.21875 -13.203125 19.21875 -12.546875 L 19.21875 0 L 16.015625 0 L 16.015625 -12.546875 C 16.015625 -14.753906 15.613281 -16.3125 14.8125 -17.21875 C 14.101562 -18 13.035156 -18.390625 11.609375 -18.390625 C 10.753906 -18.390625 10.007812 -18.25 9.375 -17.96875 C 8.75 -17.695312 8.222656 -17.320312 7.796875 -16.84375 C 7.117188 -16.144531 6.632812 -15.175781 6.34375 -13.9375 C 6.0625 -12.707031 5.921875 -11.023438 5.921875 -8.890625 Z M 5.921875 0 "/></g></g><g style="fill:#000000;fill-opacity:1;"><g transform="translate(154.820815, 270.466828)"><path style="stroke:none" d="M 5.875 0 L 2.671875 0 L 2.671875 -20.84375 L 5.875 -20.84375 L 5.875 -17.59375 C 6.9375 -18.957031 7.945312 -19.898438 8.90625 -20.421875 C 9.875 -20.953125 10.925781 -21.21875 12.0625 -21.21875 C 13.695312 -21.21875 15.003906 -20.910156 15.984375 -20.296875 C 16.960938 -19.679688 17.703125 -18.894531 18.203125 -17.9375 C 18.703125 -17.007812 18.988281 -16.039062 19.0625 -15.03125 C 19.144531 -14.03125 19.1875 -13.203125 19.1875 -12.546875 L 19.1875 0 L 15.984375 0 L 15.984375 -12.546875 C 15.984375 -14.753906 15.582031 -16.3125 14.78125 -17.21875 C 14.070312 -18 13 -18.390625 11.5625 -18.390625 C 10.707031 -18.390625 9.96875 -18.25 9.34375 -17.96875 C 8.71875 -17.695312 8.191406 -17.320312 7.765625 -16.84375 C 7.085938 -16.144531 6.601562 -15.175781 6.3125 -13.9375 C 6.019531 -12.707031 5.875 -11.023438 5.875 -8.890625 Z M 5.875 0 "/></g></g><g style="fill:#000000;fill-opacity:1;"><g transform="translate(176.522039, 270.466828)"><path style="stroke:none" d="M 11.984375 0.375 C 9.992188 0.375 8.234375 -0.0859375 6.703125 -1.015625 C 5.171875 -1.941406 3.972656 -3.226562 3.109375 -4.875 C 2.242188 -6.519531 1.8125 -8.398438 1.8125 -10.515625 C 1.8125 -12.578125 2.242188 -14.410156 3.109375 -16.015625 C 3.972656 -17.617188 5.171875 -18.882812 6.703125 -19.8125 C 8.234375 -20.75 9.992188 -21.21875 11.984375 -21.21875 C 13.972656 -21.21875 15.738281 -20.75 17.28125 -19.8125 C 18.820312 -18.882812 20.03125 -17.617188 20.90625 -16.015625 C 21.789062 -14.410156 22.234375 -12.578125 22.234375 -10.515625 C 22.234375 -8.429688 21.800781 -6.566406 20.9375 -4.921875 C 20.070312 -3.273438 18.863281 -1.976562 17.3125 -1.03125 C 15.769531 -0.09375 13.992188 0.375 11.984375 0.375 Z M 11.984375 -2.453125 C 13.316406 -2.453125 14.507812 -2.800781 15.5625 -3.5 C 16.613281 -4.207031 17.445312 -5.171875 18.0625 -6.390625 C 18.6875 -7.609375 19 -8.984375 19 -10.515625 C 19 -11.992188 18.695312 -13.328125 18.09375 -14.515625 C 17.488281 -15.710938 16.65625 -16.65625 15.59375 -17.34375 C 14.539062 -18.039062 13.335938 -18.390625 11.984375 -18.390625 C 10.648438 -18.390625 9.457031 -18.050781 8.40625 -17.375 C 7.351562 -16.695312 6.523438 -15.757812 5.921875 -14.5625 C 5.316406 -13.375 5.015625 -12.023438 5.015625 -10.515625 C 5.015625 -8.953125 5.320312 -7.5625 5.9375 -6.34375 C 6.550781 -5.125 7.382812 -4.171875 8.4375 -3.484375 C 9.5 -2.796875 10.679688 -2.453125 11.984375 -2.453125 Z M 11.984375 -2.453125 "/></g></g><g style="fill:#000000;fill-opacity:1;"><g transform="translate(200.596835, 270.466828)"><path style="stroke:none" d="M 9.3125 0 L 7.53125 0 C 6.507812 0 5.625 -0.140625 4.875 -0.421875 C 4.132812 -0.710938 3.566406 -1.242188 3.171875 -2.015625 C 2.785156 -2.785156 2.59375 -3.859375 2.59375 -5.234375 L 2.59375 -28.75 L 5.796875 -28.75 L 5.796875 -5.734375 C 5.796875 -5.097656 5.835938 -4.566406 5.921875 -4.140625 C 6.015625 -3.710938 6.238281 -3.382812 6.59375 -3.15625 C 6.945312 -2.9375 7.515625 -2.828125 8.296875 -2.828125 L 9.3125 -2.828125 Z M 9.3125 0 "/></g></g><g style="fill:#000000;fill-opacity:1;"><g transform="translate(211.033011, 270.466828)"><path style="stroke:none" d="M 11.984375 0.375 C 9.992188 0.375 8.234375 -0.0859375 6.703125 -1.015625 C 5.171875 -1.941406 3.972656 -3.226562 3.109375 -4.875 C 2.242188 -6.519531 1.8125 -8.398438 1.8125 -10.515625 C 1.8125 -12.578125 2.242188 -14.410156 3.109375 -16.015625 C 3.972656 -17.617188 5.171875 -18.882812 6.703125 -19.8125 C 8.234375 -20.75 9.992188 -21.21875 11.984375 -21.21875 C 13.972656 -21.21875 15.738281 -20.75 17.28125 -19.8125 C 18.820312 -18.882812 20.03125 -17.617188 20.90625 -16.015625 C 21.789062 -14.410156 22.234375 -12.578125 22.234375 -10.515625 C 22.234375 -8.429688 21.800781 -6.566406 20.9375 -4.921875 C 20.070312 -3.273438 18.863281 -1.976562 17.3125 -1.03125 C 15.769531 -0.09375 13.992188 0.375 11.984375 0.375 Z M 11.984375 -2.453125 C 13.316406 -2.453125 14.507812 -2.800781 15.5625 -3.5 C 16.613281 -4.207031 17.445312 -5.171875 18.0625 -6.390625 C 18.6875 -7.609375 19 -8.984375 19 -10.515625 C 19 -11.992188 18.695312 -13.328125 18.09375 -14.515625 C 17.488281 -15.710938 16.65625 -16.65625 15.59375 -17.34375 C 14.539062 -18.039062 13.335938 -18.390625 11.984375 -18.390625 C 10.648438 -18.390625 9.457031 -18.050781 8.40625 -17.375 C 7.351562 -16.695312 6.523438 -15.757812 5.921875 -14.5625 C 5.316406 -13.375 5.015625 -12.023438 5.015625 -10.515625 C 5.015625 -8.953125 5.320312 -7.5625 5.9375 -6.34375 C 6.550781 -5.125 7.382812 -4.171875 8.4375 -3.484375 C 9.5 -2.796875 10.679688 -2.453125 11.984375 -2.453125 Z M 11.984375 -2.453125 "/></g></g><g style="fill:#000000;fill-opacity:1;"><g transform="translate(235.107808, 270.466828)"><path style="stroke:none" d="M 11.875 8.296875 C 10.46875 8.296875 9.101562 8.09375 7.78125 7.6875 C 6.457031 7.28125 5.328125 6.597656 4.390625 5.640625 C 3.453125 4.691406 2.84375 3.378906 2.5625 1.703125 L 5.84375 1.703125 C 6.164062 2.929688 6.816406 3.863281 7.796875 4.5 C 8.773438 5.144531 10.117188 5.46875 11.828125 5.46875 C 14.015625 5.46875 15.597656 4.96875 16.578125 3.96875 C 17.554688 2.976562 18.046875 1.617188 18.046875 -0.109375 L 18.046875 -3.234375 C 16.972656 -1.859375 15.921875 -0.910156 14.890625 -0.390625 C 13.859375 0.117188 12.640625 0.375 11.234375 0.375 C 9.367188 0.375 7.738281 -0.078125 6.34375 -0.984375 C 4.957031 -1.890625 3.878906 -3.148438 3.109375 -4.765625 C 2.335938 -6.390625 1.953125 -8.242188 1.953125 -10.328125 C 1.953125 -12.484375 2.335938 -14.378906 3.109375 -16.015625 C 3.878906 -17.648438 4.953125 -18.925781 6.328125 -19.84375 C 7.710938 -20.757812 9.332031 -21.21875 11.1875 -21.21875 C 12.644531 -21.21875 13.890625 -20.953125 14.921875 -20.421875 C 15.953125 -19.898438 16.992188 -18.957031 18.046875 -17.59375 L 18.046875 -20.84375 L 21.25 -20.84375 L 21.25 -0.71875 C 21.25 1.539062 20.847656 3.320312 20.046875 4.625 C 19.242188 5.9375 18.140625 6.875 16.734375 7.4375 C 15.328125 8.007812 13.707031 8.296875 11.875 8.296875 Z M 11.53125 -2.453125 C 12.832031 -2.453125 13.976562 -2.796875 14.96875 -3.484375 C 15.96875 -4.171875 16.75 -5.117188 17.3125 -6.328125 C 17.882812 -7.535156 18.171875 -8.90625 18.171875 -10.4375 C 18.171875 -11.96875 17.878906 -13.328125 17.296875 -14.515625 C 16.722656 -15.710938 15.9375 -16.65625 14.9375 -17.34375 C 13.945312 -18.039062 12.8125 -18.390625 11.53125 -18.390625 C 10.226562 -18.390625 9.097656 -18.035156 8.140625 -17.328125 C 7.179688 -16.628906 6.441406 -15.679688 5.921875 -14.484375 C 5.410156 -13.296875 5.15625 -11.945312 5.15625 -10.4375 C 5.15625 -8.925781 5.410156 -7.566406 5.921875 -6.359375 C 6.441406 -5.160156 7.179688 -4.207031 8.140625 -3.5 C 9.097656 -2.800781 10.226562 -2.453125 11.53125 -2.453125 Z M 11.53125 -2.453125 "/></g></g><g style="fill:#000000;fill-opacity:1;"><g transform="translate(259.031897, 270.466828)"><path style="stroke:none" d="M 4.296875 -24.421875 C 3.617188 -24.421875 3.039062 -24.648438 2.5625 -25.109375 C 2.082031 -25.578125 1.84375 -26.140625 1.84375 -26.796875 C 1.84375 -27.453125 2.082031 -28.003906 2.5625 -28.453125 C 3.039062 -28.898438 3.617188 -29.125 4.296875 -29.125 C 4.972656 -29.125 5.550781 -28.898438 6.03125 -28.453125 C 6.507812 -28.003906 6.75 -27.453125 6.75 -26.796875 C 6.75 -26.140625 6.507812 -25.578125 6.03125 -25.109375 C 5.550781 -24.648438 4.972656 -24.421875 4.296875 -24.421875 Z M 5.875 0 L 2.671875 0 L 2.671875 -20.84375 L 5.875 -20.84375 Z M 5.875 0 "/></g></g><g style="fill:#000000;fill-opacity:1;"><g transform="translate(267.584272, 270.466828)"><path style="stroke:none" d="M 11.953125 0.375 C 9.960938 0.375 8.203125 -0.09375 6.671875 -1.03125 C 5.140625 -1.976562 3.945312 -3.257812 3.09375 -4.875 C 2.238281 -6.5 1.8125 -8.328125 1.8125 -10.359375 C 1.8125 -12.242188 2.195312 -14.015625 2.96875 -15.671875 C 3.75 -17.335938 4.894531 -18.675781 6.40625 -19.6875 C 7.914062 -20.707031 9.738281 -21.21875 11.875 -21.21875 C 13.632812 -21.21875 15.269531 -20.828125 16.78125 -20.046875 C 18.300781 -19.265625 19.539062 -18.109375 20.5 -16.578125 C 21.457031 -15.046875 21.9375 -13.160156 21.9375 -10.921875 L 21.9375 -9.796875 L 4.96875 -9.796875 C 5.019531 -9.066406 5.160156 -8.375 5.390625 -7.71875 C 5.921875 -6.113281 6.757812 -4.832031 7.90625 -3.875 C 9.0625 -2.925781 10.394531 -2.453125 11.90625 -2.453125 C 13.488281 -2.453125 14.804688 -2.867188 15.859375 -3.703125 C 16.921875 -4.546875 17.675781 -5.546875 18.125 -6.703125 L 21.5625 -6.703125 C 21.132812 -5.398438 20.492188 -4.210938 19.640625 -3.140625 C 18.785156 -2.078125 17.722656 -1.222656 16.453125 -0.578125 C 15.179688 0.0546875 13.679688 0.375 11.953125 0.375 Z M 5.28125 -12.625 L 18.5 -12.625 C 18.476562 -12.976562 18.425781 -13.328125 18.34375 -13.671875 C 18.269531 -14.023438 18.171875 -14.351562 18.046875 -14.65625 C 17.492188 -15.863281 16.671875 -16.785156 15.578125 -17.421875 C 14.484375 -18.066406 13.273438 -18.390625 11.953125 -18.390625 C 10.566406 -18.390625 9.351562 -18.0625 8.3125 -17.40625 C 7.269531 -16.757812 6.457031 -15.84375 5.875 -14.65625 C 5.726562 -14.332031 5.601562 -13.992188 5.5 -13.640625 C 5.40625 -13.285156 5.332031 -12.945312 5.28125 -12.625 Z M 5.28125 -12.625 "/></g></g><g style="fill:#000000;fill-opacity:1;"><g transform="translate(291.28233, 270.466828)"><path style="stroke:none" d="M 11.078125 0.375 C 8.410156 0.375 6.253906 -0.253906 4.609375 -1.515625 C 2.960938 -2.785156 1.96875 -4.515625 1.625 -6.703125 L 4.96875 -6.703125 C 5.25 -5.453125 5.878906 -4.429688 6.859375 -3.640625 C 7.835938 -2.847656 9.257812 -2.453125 11.125 -2.453125 C 12.53125 -2.453125 13.675781 -2.71875 14.5625 -3.25 C 15.457031 -3.789062 15.90625 -4.59375 15.90625 -5.65625 C 15.90625 -6.53125 15.628906 -7.207031 15.078125 -7.6875 C 14.523438 -8.164062 13.800781 -8.53125 12.90625 -8.78125 C 12.007812 -9.03125 11.050781 -9.253906 10.03125 -9.453125 C 9.125 -9.628906 8.222656 -9.832031 7.328125 -10.0625 C 6.441406 -10.289062 5.632812 -10.601562 4.90625 -11 C 4.175781 -11.40625 3.585938 -11.945312 3.140625 -12.625 C 2.703125 -13.300781 2.484375 -14.164062 2.484375 -15.21875 C 2.484375 -16.53125 2.816406 -17.628906 3.484375 -18.515625 C 4.148438 -19.410156 5.0625 -20.082031 6.21875 -20.53125 C 7.375 -20.988281 8.65625 -21.21875 10.0625 -21.21875 C 12.320312 -21.21875 14.207031 -20.632812 15.71875 -19.46875 C 17.226562 -18.300781 18.15625 -16.671875 18.5 -14.578125 L 15.53125 -14.578125 C 15.195312 -15.910156 14.546875 -16.878906 13.578125 -17.484375 C 12.617188 -18.085938 11.445312 -18.390625 10.0625 -18.390625 C 8.675781 -18.390625 7.597656 -18.128906 6.828125 -17.609375 C 6.066406 -17.097656 5.6875 -16.390625 5.6875 -15.484375 C 5.6875 -14.753906 5.941406 -14.179688 6.453125 -13.765625 C 6.972656 -13.359375 7.644531 -13.046875 8.46875 -12.828125 C 9.300781 -12.617188 10.195312 -12.410156 11.15625 -12.203125 C 12.082031 -12.035156 13.015625 -11.832031 13.953125 -11.59375 C 14.898438 -11.351562 15.765625 -11.019531 16.546875 -10.59375 C 17.328125 -10.164062 17.945312 -9.585938 18.40625 -8.859375 C 18.875 -8.128906 19.109375 -7.175781 19.109375 -6 C 19.109375 -4.082031 18.410156 -2.539062 17.015625 -1.375 C 15.617188 -0.207031 13.640625 0.375 11.078125 0.375 Z M 11.078125 0.375 "/></g></g></g></svg>