<svg xmlns="http://www.w3.org/2000/svg" xmlns:xlink="http://www.w3.org/1999/xlink" width="500" zoomAndPan="magnify" viewBox="0 0 375 374.999991" height="500" preserveAspectRatio="xMidYMid meet" version="1.0"><defs><g/><clipPath id="2b0804245f"><path d="M 126.21875 114.261719 L 134.46875 114.261719 L 134.46875 118.761719 L 126.21875 118.761719 Z M 126.21875 114.261719 " clip-rule="nonzero"/></clipPath><clipPath id="901176b2a8"><path d="M 126.21875 116.511719 C 126.21875 117.753906 127.226562 118.761719 128.46875 118.761719 L 132.207031 118.761719 C 133.449219 118.761719 134.457031 117.753906 134.457031 116.511719 C 134.457031 115.269531 133.449219 114.261719 132.207031 114.261719 L 128.46875 114.261719 C 127.226562 114.261719 126.21875 115.269531 126.21875 116.511719 Z M 126.21875 116.511719 " clip-rule="nonzero"/></clipPath><clipPath id="0e0d4f0c53"><path d="M 244.300781 114.277344 L 252.550781 114.277344 L 252.550781 118.777344 L 244.300781 118.777344 Z M 244.300781 114.277344 " clip-rule="nonzero"/></clipPath><clipPath id="4002bb1200"><path d="M 244.300781 116.527344 C 244.300781 117.769531 245.308594 118.777344 246.550781 118.777344 L 250.289062 118.777344 C 251.53125 118.777344 252.539062 117.769531 252.539062 116.527344 C 252.539062 115.285156 251.53125 114.277344 250.289062 114.277344 L 246.550781 114.277344 C 245.308594 114.277344 244.300781 115.285156 244.300781 116.527344 Z M 244.300781 116.527344 " clip-rule="nonzero"/></clipPath></defs><g fill="#000000" fill-opacity="1"><g transform="translate(96.455528, 237.990223)"><g><path d="M 29.34375 -21.25 L 38.546875 0 L 32.21875 0 L 23.765625 -20.1875 L 10.71875 -20.1875 L 10.71875 0 L 4.953125 0 L 4.953125 -47.828125 L 22.75 -47.828125 C 27.351562 -47.828125 31.03125 -46.695312 33.78125 -44.4375 C 36.539062 -42.1875 37.921875 -38.765625 37.921875 -34.171875 C 37.921875 -30.953125 37.164062 -28.234375 35.65625 -26.015625 C 34.15625 -23.796875 32.050781 -22.207031 29.34375 -21.25 Z M 10.71875 -25.328125 L 22 -25.328125 C 25.300781 -25.328125 27.828125 -26.066406 29.578125 -27.546875 C 31.335938 -29.035156 32.21875 -31.179688 32.21875 -33.984375 C 32.21875 -36.734375 31.316406 -38.859375 29.515625 -40.359375 C 27.722656 -41.867188 25.21875 -42.625 22 -42.625 L 10.71875 -42.625 Z M 10.71875 -25.328125 "/></g></g></g><g fill="#000000" fill-opacity="1"><g transform="translate(137.822897, 237.990223)"><g><path d="M 7.578125 0.625 C 6.535156 0.625 5.640625 0.257812 4.890625 -0.46875 C 4.140625 -1.195312 3.765625 -2.085938 3.765625 -3.140625 C 3.765625 -4.140625 4.140625 -4.992188 4.890625 -5.703125 C 5.640625 -6.410156 6.535156 -6.765625 7.578125 -6.765625 C 8.546875 -6.765625 9.382812 -6.398438 10.09375 -5.671875 C 10.800781 -4.941406 11.15625 -4.097656 11.15625 -3.140625 C 11.15625 -2.085938 10.800781 -1.195312 10.09375 -0.46875 C 9.382812 0.257812 8.546875 0.625 7.578125 0.625 Z M 7.578125 0.625 "/></g></g></g><g fill="#000000" fill-opacity="1"><g transform="translate(152.740228, 237.990223)"><g><path d="M 10.71875 0 L 4.953125 0 L 4.953125 -47.828125 L 10.71875 -47.828125 Z M 10.71875 0 "/></g></g></g><g fill="#000000" fill-opacity="1"><g transform="translate(168.472356, 237.990223)"><g><path d="M 7.578125 0.625 C 6.535156 0.625 5.640625 0.257812 4.890625 -0.46875 C 4.140625 -1.195312 3.765625 -2.085938 3.765625 -3.140625 C 3.765625 -4.140625 4.140625 -4.992188 4.890625 -5.703125 C 5.640625 -6.410156 6.535156 -6.765625 7.578125 -6.765625 C 8.546875 -6.765625 9.382812 -6.398438 10.09375 -5.671875 C 10.800781 -4.941406 11.15625 -4.097656 11.15625 -3.140625 C 11.15625 -2.085938 10.800781 -1.195312 10.09375 -0.46875 C 9.382812 0.257812 8.546875 0.625 7.578125 0.625 Z M 7.578125 0.625 "/></g></g></g><g fill="#000000" fill-opacity="1"><g transform="translate(183.389686, 237.990223)"><g><path d="M 22.25 0.625 C 19.113281 0.625 16.144531 0.113281 13.34375 -0.90625 C 10.550781 -1.925781 8.203125 -3.554688 6.296875 -5.796875 C 4.398438 -8.035156 3.179688 -10.929688 2.640625 -14.484375 L 8.46875 -14.484375 C 8.96875 -11.929688 9.945312 -9.929688 11.40625 -8.484375 C 12.875 -7.046875 14.597656 -6.023438 16.578125 -5.421875 C 18.566406 -4.816406 20.539062 -4.515625 22.5 -4.515625 C 25.84375 -4.515625 28.460938 -5.210938 30.359375 -6.609375 C 32.265625 -8.015625 33.21875 -10.132812 33.21875 -12.96875 C 33.21875 -14.6875 32.851562 -16.085938 32.125 -17.171875 C 31.394531 -18.265625 30.398438 -19.144531 29.140625 -19.8125 C 27.890625 -20.476562 26.476562 -21.019531 24.90625 -21.4375 C 23.34375 -21.851562 21.707031 -22.25 20 -22.625 C 18.113281 -23 16.257812 -23.4375 14.4375 -23.9375 C 12.625 -24.445312 10.972656 -25.140625 9.484375 -26.015625 C 8.003906 -26.890625 6.816406 -28.066406 5.921875 -29.546875 C 5.023438 -31.035156 4.578125 -32.953125 4.578125 -35.296875 C 4.578125 -38.015625 5.234375 -40.351562 6.546875 -42.3125 C 7.867188 -44.28125 9.695312 -45.796875 12.03125 -46.859375 C 14.375 -47.921875 17.113281 -48.453125 20.25 -48.453125 C 22.96875 -48.453125 25.546875 -47.984375 27.984375 -47.046875 C 30.429688 -46.109375 32.519531 -44.632812 34.25 -42.625 C 35.988281 -40.625 37.109375 -37.972656 37.609375 -34.671875 L 32.03125 -34.671875 C 31.570312 -36.835938 30.734375 -38.546875 29.515625 -39.796875 C 28.304688 -41.054688 26.882812 -41.957031 25.25 -42.5 C 23.625 -43.039062 21.9375 -43.3125 20.1875 -43.3125 C 16.96875 -43.3125 14.519531 -42.632812 12.84375 -41.28125 C 11.175781 -39.925781 10.34375 -38.097656 10.34375 -35.796875 C 10.34375 -33.867188 10.914062 -32.375 12.0625 -31.3125 C 13.21875 -30.25 14.722656 -29.429688 16.578125 -28.859375 C 18.441406 -28.296875 20.4375 -27.785156 22.5625 -27.328125 C 24.53125 -26.910156 26.484375 -26.429688 28.421875 -25.890625 C 30.367188 -25.347656 32.132812 -24.59375 33.71875 -23.625 C 35.3125 -22.664062 36.585938 -21.367188 37.546875 -19.734375 C 38.503906 -18.109375 38.984375 -15.984375 38.984375 -13.359375 C 38.984375 -9.128906 37.5625 -5.738281 34.71875 -3.1875 C 31.882812 -0.644531 27.726562 0.625 22.25 0.625 Z M 22.25 0.625 "/></g></g></g><g fill="#000000" fill-opacity="1"><g transform="translate(225.571872, 237.990223)"><g><path d="M 7.578125 0.625 C 6.535156 0.625 5.640625 0.257812 4.890625 -0.46875 C 4.140625 -1.195312 3.765625 -2.085938 3.765625 -3.140625 C 3.765625 -4.140625 4.140625 -4.992188 4.890625 -5.703125 C 5.640625 -6.410156 6.535156 -6.765625 7.578125 -6.765625 C 8.546875 -6.765625 9.382812 -6.398438 10.09375 -5.671875 C 10.800781 -4.941406 11.15625 -4.097656 11.15625 -3.140625 C 11.15625 -2.085938 10.800781 -1.195312 10.09375 -0.46875 C 9.382812 0.257812 8.546875 0.625 7.578125 0.625 Z M 7.578125 0.625 "/></g></g></g><g fill="#000000" fill-opacity="1"><g transform="translate(240.489202, 237.990223)"><g><path d="M 35.859375 0 L 4.953125 0 L 4.953125 -47.828125 L 35.859375 -47.828125 L 35.859375 -42.625 L 10.71875 -42.625 L 10.71875 -26.578125 L 32.90625 -26.578125 L 32.90625 -21.4375 L 10.71875 -21.4375 L 10.71875 -5.203125 L 35.859375 -5.203125 Z M 35.859375 0 "/></g></g></g><path stroke-linecap="round" transform="matrix(0, -0.75, 0.75, 0, 182.999304, 359.501928)" fill="none" stroke-linejoin="miter" d="M 6.002572 6.000929 L 54.2057 6.000929 " stroke="#000000" stroke-width="12" stroke-opacity="1" stroke-miterlimit="4"/><path stroke-linecap="round" transform="matrix(0.75, 0, 0, 0.75, 145.649349, 355.002603)" fill="none" stroke-linejoin="miter" d="M 5.998785 6.001738 L 105.602958 6.001738 " stroke="#000000" stroke-width="12" stroke-opacity="1" stroke-miterlimit="4"/><g fill="#545454" fill-opacity="1"><g transform="translate(31.583043, 265.414565)"><g><path d="M 7.328125 -5.3125 L 9.640625 0 L 8.0625 0 L 5.9375 -5.046875 L 2.6875 -5.046875 L 2.6875 0 L 1.234375 0 L 1.234375 -11.953125 L 5.6875 -11.953125 C 6.832031 -11.953125 7.75 -11.671875 8.4375 -11.109375 C 9.132812 -10.546875 9.484375 -9.691406 9.484375 -8.546875 C 9.484375 -7.734375 9.296875 -7.050781 8.921875 -6.5 C 8.546875 -5.945312 8.015625 -5.550781 7.328125 -5.3125 Z M 2.6875 -6.328125 L 5.5 -6.328125 C 6.320312 -6.328125 6.953125 -6.507812 7.390625 -6.875 C 7.835938 -7.25 8.0625 -7.789062 8.0625 -8.5 C 8.0625 -9.1875 7.832031 -9.71875 7.375 -10.09375 C 6.925781 -10.46875 6.300781 -10.65625 5.5 -10.65625 L 2.6875 -10.65625 Z M 2.6875 -6.328125 "/></g></g></g><g fill="#545454" fill-opacity="1"><g transform="translate(41.921828, 265.414565)"><g><path d="M 4.96875 0.15625 C 4.144531 0.15625 3.410156 -0.0351562 2.765625 -0.421875 C 2.128906 -0.816406 1.632812 -1.351562 1.28125 -2.03125 C 0.925781 -2.707031 0.75 -3.46875 0.75 -4.3125 C 0.75 -5.09375 0.910156 -5.828125 1.234375 -6.515625 C 1.554688 -7.203125 2.03125 -7.757812 2.65625 -8.1875 C 3.289062 -8.613281 4.050781 -8.828125 4.9375 -8.828125 C 5.664062 -8.828125 6.347656 -8.664062 6.984375 -8.34375 C 7.617188 -8.019531 8.132812 -7.535156 8.53125 -6.890625 C 8.925781 -6.253906 9.125 -5.472656 9.125 -4.546875 L 9.125 -4.078125 L 2.0625 -4.078125 C 2.082031 -3.773438 2.140625 -3.488281 2.234375 -3.21875 C 2.453125 -2.539062 2.800781 -2.003906 3.28125 -1.609375 C 3.769531 -1.210938 4.328125 -1.015625 4.953125 -1.015625 C 5.609375 -1.015625 6.15625 -1.1875 6.59375 -1.53125 C 7.03125 -1.882812 7.34375 -2.304688 7.53125 -2.796875 L 8.96875 -2.796875 C 8.789062 -2.242188 8.519531 -1.742188 8.15625 -1.296875 C 7.800781 -0.859375 7.359375 -0.503906 6.828125 -0.234375 C 6.304688 0.0234375 5.6875 0.15625 4.96875 0.15625 Z M 2.1875 -5.25 L 7.6875 -5.25 C 7.675781 -5.394531 7.65625 -5.539062 7.625 -5.6875 C 7.59375 -5.832031 7.550781 -5.96875 7.5 -6.09375 C 7.269531 -6.59375 6.925781 -6.972656 6.46875 -7.234375 C 6.019531 -7.503906 5.519531 -7.640625 4.96875 -7.640625 C 4.394531 -7.640625 3.890625 -7.503906 3.453125 -7.234375 C 3.023438 -6.960938 2.6875 -6.582031 2.4375 -6.09375 C 2.375 -5.957031 2.320312 -5.816406 2.28125 -5.671875 C 2.238281 -5.523438 2.207031 -5.382812 2.1875 -5.25 Z M 2.1875 -5.25 "/></g></g></g><g fill="#545454" fill-opacity="1"><g transform="translate(51.775012, 265.414565)"><g><path d="M 4.609375 0.15625 C 3.503906 0.15625 2.609375 -0.101562 1.921875 -0.625 C 1.234375 -1.15625 0.816406 -1.878906 0.671875 -2.796875 L 2.0625 -2.796875 C 2.175781 -2.265625 2.4375 -1.832031 2.84375 -1.5 C 3.257812 -1.175781 3.851562 -1.015625 4.625 -1.015625 C 5.207031 -1.015625 5.679688 -1.125 6.046875 -1.34375 C 6.421875 -1.570312 6.609375 -1.90625 6.609375 -2.34375 C 6.609375 -2.71875 6.492188 -3.003906 6.265625 -3.203125 C 6.035156 -3.398438 5.734375 -3.550781 5.359375 -3.65625 C 4.992188 -3.757812 4.597656 -3.851562 4.171875 -3.9375 C 3.796875 -4.007812 3.421875 -4.09375 3.046875 -4.1875 C 2.671875 -4.28125 2.332031 -4.410156 2.03125 -4.578125 C 1.726562 -4.742188 1.484375 -4.96875 1.296875 -5.25 C 1.117188 -5.53125 1.03125 -5.890625 1.03125 -6.328125 C 1.03125 -6.867188 1.164062 -7.328125 1.4375 -7.703125 C 1.71875 -8.078125 2.097656 -8.359375 2.578125 -8.546875 C 3.066406 -8.734375 3.601562 -8.828125 4.1875 -8.828125 C 5.125 -8.828125 5.90625 -8.582031 6.53125 -8.09375 C 7.15625 -7.601562 7.539062 -6.925781 7.6875 -6.0625 L 6.453125 -6.0625 C 6.316406 -6.613281 6.046875 -7.015625 5.640625 -7.265625 C 5.242188 -7.515625 4.757812 -7.640625 4.1875 -7.640625 C 3.613281 -7.640625 3.164062 -7.53125 2.84375 -7.3125 C 2.519531 -7.101562 2.359375 -6.8125 2.359375 -6.4375 C 2.359375 -6.132812 2.46875 -5.894531 2.6875 -5.71875 C 2.90625 -5.550781 3.1875 -5.421875 3.53125 -5.328125 C 3.875 -5.242188 4.242188 -5.160156 4.640625 -5.078125 C 5.023438 -5.003906 5.410156 -4.914062 5.796875 -4.8125 C 6.191406 -4.71875 6.550781 -4.582031 6.875 -4.40625 C 7.195312 -4.226562 7.457031 -3.988281 7.65625 -3.6875 C 7.851562 -3.382812 7.953125 -2.984375 7.953125 -2.484375 C 7.953125 -1.691406 7.660156 -1.050781 7.078125 -0.5625 C 6.492188 -0.0820312 5.671875 0.15625 4.609375 0.15625 Z M 4.609375 0.15625 "/></g></g></g><g fill="#545454" fill-opacity="1"><g transform="translate(60.500323, 265.414565)"><g><path d="M 1.78125 -10.15625 C 1.5 -10.15625 1.257812 -10.25 1.0625 -10.4375 C 0.863281 -10.632812 0.765625 -10.867188 0.765625 -11.140625 C 0.765625 -11.410156 0.863281 -11.640625 1.0625 -11.828125 C 1.257812 -12.015625 1.5 -12.109375 1.78125 -12.109375 C 2.0625 -12.109375 2.300781 -12.015625 2.5 -11.828125 C 2.707031 -11.640625 2.8125 -11.410156 2.8125 -11.140625 C 2.8125 -10.867188 2.707031 -10.632812 2.5 -10.4375 C 2.300781 -10.25 2.0625 -10.15625 1.78125 -10.15625 Z M 2.4375 0 L 1.109375 0 L 1.109375 -8.671875 L 2.4375 -8.671875 Z M 2.4375 0 "/></g></g></g><g fill="#545454" fill-opacity="1"><g transform="translate(64.056234, 265.414565)"><g><path d="M 3.875 0 L 3.140625 0 C 2.703125 0 2.328125 -0.0546875 2.015625 -0.171875 C 1.710938 -0.296875 1.476562 -0.515625 1.3125 -0.828125 C 1.15625 -1.148438 1.078125 -1.597656 1.078125 -2.171875 L 1.078125 -11.953125 L 2.40625 -11.953125 L 2.40625 -2.375 C 2.40625 -2.113281 2.421875 -1.894531 2.453125 -1.71875 C 2.492188 -1.539062 2.585938 -1.40625 2.734375 -1.3125 C 2.890625 -1.21875 3.128906 -1.171875 3.453125 -1.171875 L 3.875 -1.171875 Z M 3.875 0 "/></g></g></g><g fill="#545454" fill-opacity="1"><g transform="translate(68.395396, 265.414565)"><g><path d="M 1.78125 -10.15625 C 1.5 -10.15625 1.257812 -10.25 1.0625 -10.4375 C 0.863281 -10.632812 0.765625 -10.867188 0.765625 -11.140625 C 0.765625 -11.410156 0.863281 -11.640625 1.0625 -11.828125 C 1.257812 -12.015625 1.5 -12.109375 1.78125 -12.109375 C 2.0625 -12.109375 2.300781 -12.015625 2.5 -11.828125 C 2.707031 -11.640625 2.8125 -11.410156 2.8125 -11.140625 C 2.8125 -10.867188 2.707031 -10.632812 2.5 -10.4375 C 2.300781 -10.25 2.0625 -10.15625 1.78125 -10.15625 Z M 2.4375 0 L 1.109375 0 L 1.109375 -8.671875 L 2.4375 -8.671875 Z M 2.4375 0 "/></g></g></g><g fill="#545454" fill-opacity="1"><g transform="translate(71.951306, 265.414565)"><g><path d="M 4.96875 0.15625 C 4.144531 0.15625 3.410156 -0.0351562 2.765625 -0.421875 C 2.128906 -0.816406 1.632812 -1.351562 1.28125 -2.03125 C 0.925781 -2.707031 0.75 -3.46875 0.75 -4.3125 C 0.75 -5.09375 0.910156 -5.828125 1.234375 -6.515625 C 1.554688 -7.203125 2.03125 -7.757812 2.65625 -8.1875 C 3.289062 -8.613281 4.050781 -8.828125 4.9375 -8.828125 C 5.664062 -8.828125 6.347656 -8.664062 6.984375 -8.34375 C 7.617188 -8.019531 8.132812 -7.535156 8.53125 -6.890625 C 8.925781 -6.253906 9.125 -5.472656 9.125 -4.546875 L 9.125 -4.078125 L 2.0625 -4.078125 C 2.082031 -3.773438 2.140625 -3.488281 2.234375 -3.21875 C 2.453125 -2.539062 2.800781 -2.003906 3.28125 -1.609375 C 3.769531 -1.210938 4.328125 -1.015625 4.953125 -1.015625 C 5.609375 -1.015625 6.15625 -1.1875 6.59375 -1.53125 C 7.03125 -1.882812 7.34375 -2.304688 7.53125 -2.796875 L 8.96875 -2.796875 C 8.789062 -2.242188 8.519531 -1.742188 8.15625 -1.296875 C 7.800781 -0.859375 7.359375 -0.503906 6.828125 -0.234375 C 6.304688 0.0234375 5.6875 0.15625 4.96875 0.15625 Z M 2.1875 -5.25 L 7.6875 -5.25 C 7.675781 -5.394531 7.65625 -5.539062 7.625 -5.6875 C 7.59375 -5.832031 7.550781 -5.96875 7.5 -6.09375 C 7.269531 -6.59375 6.925781 -6.972656 6.46875 -7.234375 C 6.019531 -7.503906 5.519531 -7.640625 4.96875 -7.640625 C 4.394531 -7.640625 3.890625 -7.503906 3.453125 -7.234375 C 3.023438 -6.960938 2.6875 -6.582031 2.4375 -6.09375 C 2.375 -5.957031 2.320312 -5.816406 2.28125 -5.671875 C 2.238281 -5.523438 2.207031 -5.382812 2.1875 -5.25 Z M 2.1875 -5.25 "/></g></g></g><g fill="#545454" fill-opacity="1"><g transform="translate(81.80449, 265.414565)"><g><path d="M 2.4375 0 L 1.109375 0 L 1.109375 -8.671875 L 2.4375 -8.671875 L 2.4375 -7.3125 C 2.882812 -7.882812 3.304688 -8.28125 3.703125 -8.5 C 4.109375 -8.71875 4.546875 -8.828125 5.015625 -8.828125 C 5.691406 -8.828125 6.234375 -8.695312 6.640625 -8.4375 C 7.046875 -8.1875 7.351562 -7.859375 7.5625 -7.453125 C 7.78125 -7.066406 7.90625 -6.664062 7.9375 -6.25 C 7.96875 -5.832031 7.984375 -5.488281 7.984375 -5.21875 L 7.984375 0 L 6.640625 0 L 6.640625 -5.21875 C 6.640625 -6.132812 6.472656 -6.78125 6.140625 -7.15625 C 5.847656 -7.476562 5.40625 -7.640625 4.8125 -7.640625 C 4.457031 -7.640625 4.148438 -7.582031 3.890625 -7.46875 C 3.628906 -7.351562 3.410156 -7.195312 3.234375 -7 C 2.953125 -6.707031 2.75 -6.304688 2.625 -5.796875 C 2.5 -5.285156 2.4375 -4.585938 2.4375 -3.703125 Z M 2.4375 0 "/></g></g></g><g fill="#545454" fill-opacity="1"><g transform="translate(90.827435, 265.414565)"><g><path d="M 5.078125 0 L 3.875 0 C 3.445312 0 3.078125 -0.0546875 2.765625 -0.171875 C 2.453125 -0.296875 2.210938 -0.515625 2.046875 -0.828125 C 1.890625 -1.148438 1.8125 -1.597656 1.8125 -2.171875 L 1.8125 -7.484375 L 0.421875 -7.484375 L 0.421875 -8.671875 L 1.8125 -8.671875 L 1.8125 -11.953125 L 3.15625 -11.953125 L 3.15625 -8.671875 L 5.09375 -8.671875 L 5.09375 -7.484375 L 3.15625 -7.484375 L 3.15625 -2.4375 C 3.15625 -2.1875 3.171875 -1.960938 3.203125 -1.765625 C 3.242188 -1.578125 3.335938 -1.429688 3.484375 -1.328125 C 3.628906 -1.222656 3.863281 -1.171875 4.1875 -1.171875 L 5.078125 -1.171875 Z M 5.078125 0 "/></g></g></g><g fill="#545454" fill-opacity="1"><g transform="translate(96.482437, 265.414565)"><g/></g></g><g fill="#545454" fill-opacity="1"><g transform="translate(100.868586, 265.414565)"><g><path d="M 2.6875 0 L 1.234375 0 L 1.234375 -11.953125 L 2.6875 -11.953125 Z M 2.6875 0 "/></g></g></g><g fill="#545454" fill-opacity="1"><g transform="translate(104.800466, 265.414565)"><g><path d="M 2.4375 0 L 1.109375 0 L 1.109375 -8.671875 L 2.4375 -8.671875 L 2.4375 -7.3125 C 2.882812 -7.882812 3.304688 -8.28125 3.703125 -8.5 C 4.109375 -8.71875 4.546875 -8.828125 5.015625 -8.828125 C 5.691406 -8.828125 6.234375 -8.695312 6.640625 -8.4375 C 7.046875 -8.1875 7.351562 -7.859375 7.5625 -7.453125 C 7.78125 -7.066406 7.90625 -6.664062 7.9375 -6.25 C 7.96875 -5.832031 7.984375 -5.488281 7.984375 -5.21875 L 7.984375 0 L 6.640625 0 L 6.640625 -5.21875 C 6.640625 -6.132812 6.472656 -6.78125 6.140625 -7.15625 C 5.847656 -7.476562 5.40625 -7.640625 4.8125 -7.640625 C 4.457031 -7.640625 4.148438 -7.582031 3.890625 -7.46875 C 3.628906 -7.351562 3.410156 -7.195312 3.234375 -7 C 2.953125 -6.707031 2.75 -6.304688 2.625 -5.796875 C 2.5 -5.285156 2.4375 -4.585938 2.4375 -3.703125 Z M 2.4375 0 "/></g></g></g><g fill="#545454" fill-opacity="1"><g transform="translate(113.823411, 265.414565)"><g><path d="M 2.4375 0 L 1.109375 0 L 1.109375 -8.671875 L 2.4375 -8.671875 L 2.4375 -7.3125 C 2.882812 -7.882812 3.304688 -8.28125 3.703125 -8.5 C 4.109375 -8.71875 4.546875 -8.828125 5.015625 -8.828125 C 5.691406 -8.828125 6.234375 -8.695312 6.640625 -8.4375 C 7.046875 -8.1875 7.351562 -7.859375 7.5625 -7.453125 C 7.78125 -7.066406 7.90625 -6.664062 7.9375 -6.25 C 7.96875 -5.832031 7.984375 -5.488281 7.984375 -5.21875 L 7.984375 0 L 6.640625 0 L 6.640625 -5.21875 C 6.640625 -6.132812 6.472656 -6.78125 6.140625 -7.15625 C 5.847656 -7.476562 5.40625 -7.640625 4.8125 -7.640625 C 4.457031 -7.640625 4.148438 -7.582031 3.890625 -7.46875 C 3.628906 -7.351562 3.410156 -7.195312 3.234375 -7 C 2.953125 -6.707031 2.75 -6.304688 2.625 -5.796875 C 2.5 -5.285156 2.4375 -4.585938 2.4375 -3.703125 Z M 2.4375 0 "/></g></g></g><g fill="#545454" fill-opacity="1"><g transform="translate(122.846356, 265.414565)"><g><path d="M 4.984375 0.15625 C 4.160156 0.15625 3.425781 -0.0351562 2.78125 -0.421875 C 2.144531 -0.804688 1.644531 -1.34375 1.28125 -2.03125 C 0.925781 -2.71875 0.75 -3.5 0.75 -4.375 C 0.75 -5.226562 0.925781 -5.988281 1.28125 -6.65625 C 1.644531 -7.320312 2.144531 -7.847656 2.78125 -8.234375 C 3.425781 -8.628906 4.160156 -8.828125 4.984375 -8.828125 C 5.804688 -8.828125 6.539062 -8.628906 7.1875 -8.234375 C 7.832031 -7.847656 8.335938 -7.320312 8.703125 -6.65625 C 9.066406 -5.988281 9.25 -5.226562 9.25 -4.375 C 9.25 -3.507812 9.066406 -2.734375 8.703125 -2.046875 C 8.347656 -1.359375 7.847656 -0.816406 7.203125 -0.421875 C 6.554688 -0.0351562 5.816406 0.15625 4.984375 0.15625 Z M 4.984375 -1.015625 C 5.535156 -1.015625 6.03125 -1.160156 6.46875 -1.453125 C 6.90625 -1.742188 7.253906 -2.144531 7.515625 -2.65625 C 7.773438 -3.164062 7.90625 -3.738281 7.90625 -4.375 C 7.90625 -4.988281 7.773438 -5.539062 7.515625 -6.03125 C 7.265625 -6.53125 6.921875 -6.921875 6.484375 -7.203125 C 6.046875 -7.492188 5.546875 -7.640625 4.984375 -7.640625 C 4.429688 -7.640625 3.9375 -7.5 3.5 -7.21875 C 3.0625 -6.9375 2.710938 -6.546875 2.453125 -6.046875 C 2.203125 -5.554688 2.078125 -5 2.078125 -4.375 C 2.078125 -3.726562 2.207031 -3.148438 2.46875 -2.640625 C 2.726562 -2.128906 3.078125 -1.726562 3.515625 -1.4375 C 3.953125 -1.15625 4.441406 -1.015625 4.984375 -1.015625 Z M 4.984375 -1.015625 "/></g></g></g><g fill="#545454" fill-opacity="1"><g transform="translate(132.856194, 265.414565)"><g><path d="M 4.609375 0 L 3.515625 0 L 0.3125 -8.671875 L 1.78125 -8.671875 L 4.0625 -2.25 L 6.359375 -8.671875 L 7.8125 -8.671875 Z M 4.609375 0 "/></g></g></g><g fill="#545454" fill-opacity="1"><g transform="translate(140.986239, 265.414565)"><g><path d="M 3.578125 0.15625 C 2.703125 0.15625 2.007812 -0.0625 1.5 -0.5 C 1 -0.9375 0.75 -1.535156 0.75 -2.296875 C 0.75 -3.054688 1.03125 -3.65625 1.59375 -4.09375 C 2.050781 -4.457031 2.71875 -4.726562 3.59375 -4.90625 L 6.671875 -5.5 C 6.671875 -6.175781 6.492188 -6.691406 6.140625 -7.046875 C 5.742188 -7.441406 5.210938 -7.640625 4.546875 -7.640625 C 4.015625 -7.640625 3.550781 -7.5 3.15625 -7.21875 C 2.757812 -6.9375 2.507812 -6.550781 2.40625 -6.0625 L 1.078125 -6.0625 C 1.179688 -6.664062 1.398438 -7.171875 1.734375 -7.578125 C 2.078125 -7.992188 2.492188 -8.304688 2.984375 -8.515625 C 3.484375 -8.722656 4.007812 -8.828125 4.5625 -8.828125 C 5.0625 -8.828125 5.53125 -8.753906 5.96875 -8.609375 C 6.414062 -8.460938 6.789062 -8.238281 7.09375 -7.9375 C 7.394531 -7.632812 7.609375 -7.300781 7.734375 -6.9375 C 7.867188 -6.570312 7.945312 -6.222656 7.96875 -5.890625 C 8 -5.566406 8.015625 -5.304688 8.015625 -5.109375 L 8.015625 0 L 6.671875 0 L 6.671875 -1.359375 C 6.367188 -0.921875 6.019531 -0.582031 5.625 -0.34375 C 5.332031 -0.164062 5.015625 -0.0390625 4.671875 0.03125 C 4.335938 0.113281 3.972656 0.15625 3.578125 0.15625 Z M 3.734375 -1.015625 C 4.265625 -1.015625 4.722656 -1.113281 5.109375 -1.3125 C 5.722656 -1.632812 6.140625 -2.050781 6.359375 -2.5625 C 6.578125 -3.082031 6.6875 -3.703125 6.6875 -4.421875 L 3.875 -3.859375 C 3.226562 -3.734375 2.75 -3.53125 2.4375 -3.25 C 2.195312 -3.007812 2.078125 -2.703125 2.078125 -2.328125 C 2.078125 -1.929688 2.226562 -1.613281 2.53125 -1.375 C 2.832031 -1.132812 3.234375 -1.015625 3.734375 -1.015625 Z M 3.734375 -1.015625 "/></g></g></g><g fill="#545454" fill-opacity="1"><g transform="translate(150.009184, 265.414565)"><g><path d="M 5.078125 0 L 3.875 0 C 3.445312 0 3.078125 -0.0546875 2.765625 -0.171875 C 2.453125 -0.296875 2.210938 -0.515625 2.046875 -0.828125 C 1.890625 -1.148438 1.8125 -1.597656 1.8125 -2.171875 L 1.8125 -7.484375 L 0.421875 -7.484375 L 0.421875 -8.671875 L 1.8125 -8.671875 L 1.8125 -11.953125 L 3.15625 -11.953125 L 3.15625 -8.671875 L 5.09375 -8.671875 L 5.09375 -7.484375 L 3.15625 -7.484375 L 3.15625 -2.4375 C 3.15625 -2.1875 3.171875 -1.960938 3.203125 -1.765625 C 3.242188 -1.578125 3.335938 -1.429688 3.484375 -1.328125 C 3.628906 -1.222656 3.863281 -1.171875 4.1875 -1.171875 L 5.078125 -1.171875 Z M 5.078125 0 "/></g></g></g><g fill="#545454" fill-opacity="1"><g transform="translate(155.664185, 265.414565)"><g><path d="M 1.78125 -10.15625 C 1.5 -10.15625 1.257812 -10.25 1.0625 -10.4375 C 0.863281 -10.632812 0.765625 -10.867188 0.765625 -11.140625 C 0.765625 -11.410156 0.863281 -11.640625 1.0625 -11.828125 C 1.257812 -12.015625 1.5 -12.109375 1.78125 -12.109375 C 2.0625 -12.109375 2.300781 -12.015625 2.5 -11.828125 C 2.707031 -11.640625 2.8125 -11.410156 2.8125 -11.140625 C 2.8125 -10.867188 2.707031 -10.632812 2.5 -10.4375 C 2.300781 -10.25 2.0625 -10.15625 1.78125 -10.15625 Z M 2.4375 0 L 1.109375 0 L 1.109375 -8.671875 L 2.4375 -8.671875 Z M 2.4375 0 "/></g></g></g><g fill="#545454" fill-opacity="1"><g transform="translate(159.220096, 265.414565)"><g><path d="M 4.984375 0.15625 C 4.160156 0.15625 3.425781 -0.0351562 2.78125 -0.421875 C 2.144531 -0.804688 1.644531 -1.34375 1.28125 -2.03125 C 0.925781 -2.71875 0.75 -3.5 0.75 -4.375 C 0.75 -5.226562 0.925781 -5.988281 1.28125 -6.65625 C 1.644531 -7.320312 2.144531 -7.847656 2.78125 -8.234375 C 3.425781 -8.628906 4.160156 -8.828125 4.984375 -8.828125 C 5.804688 -8.828125 6.539062 -8.628906 7.1875 -8.234375 C 7.832031 -7.847656 8.335938 -7.320312 8.703125 -6.65625 C 9.066406 -5.988281 9.25 -5.226562 9.25 -4.375 C 9.25 -3.507812 9.066406 -2.734375 8.703125 -2.046875 C 8.347656 -1.359375 7.847656 -0.816406 7.203125 -0.421875 C 6.554688 -0.0351562 5.816406 0.15625 4.984375 0.15625 Z M 4.984375 -1.015625 C 5.535156 -1.015625 6.03125 -1.160156 6.46875 -1.453125 C 6.90625 -1.742188 7.253906 -2.144531 7.515625 -2.65625 C 7.773438 -3.164062 7.90625 -3.738281 7.90625 -4.375 C 7.90625 -4.988281 7.773438 -5.539062 7.515625 -6.03125 C 7.265625 -6.53125 6.921875 -6.921875 6.484375 -7.203125 C 6.046875 -7.492188 5.546875 -7.640625 4.984375 -7.640625 C 4.429688 -7.640625 3.9375 -7.5 3.5 -7.21875 C 3.0625 -6.9375 2.710938 -6.546875 2.453125 -6.046875 C 2.203125 -5.554688 2.078125 -5 2.078125 -4.375 C 2.078125 -3.726562 2.207031 -3.148438 2.46875 -2.640625 C 2.726562 -2.128906 3.078125 -1.726562 3.515625 -1.4375 C 3.953125 -1.15625 4.441406 -1.015625 4.984375 -1.015625 Z M 4.984375 -1.015625 "/></g></g></g><g fill="#545454" fill-opacity="1"><g transform="translate(169.229934, 265.414565)"><g><path d="M 2.4375 0 L 1.109375 0 L 1.109375 -8.671875 L 2.4375 -8.671875 L 2.4375 -7.3125 C 2.882812 -7.882812 3.304688 -8.28125 3.703125 -8.5 C 4.109375 -8.71875 4.546875 -8.828125 5.015625 -8.828125 C 5.691406 -8.828125 6.234375 -8.695312 6.640625 -8.4375 C 7.046875 -8.1875 7.351562 -7.859375 7.5625 -7.453125 C 7.78125 -7.066406 7.90625 -6.664062 7.9375 -6.25 C 7.96875 -5.832031 7.984375 -5.488281 7.984375 -5.21875 L 7.984375 0 L 6.640625 0 L 6.640625 -5.21875 C 6.640625 -6.132812 6.472656 -6.78125 6.140625 -7.15625 C 5.847656 -7.476562 5.40625 -7.640625 4.8125 -7.640625 C 4.457031 -7.640625 4.148438 -7.582031 3.890625 -7.46875 C 3.628906 -7.351562 3.410156 -7.195312 3.234375 -7 C 2.953125 -6.707031 2.75 -6.304688 2.625 -5.796875 C 2.5 -5.285156 2.4375 -4.585938 2.4375 -3.703125 Z M 2.4375 0 "/></g></g></g><g fill="#545454" fill-opacity="1"><g transform="translate(178.252879, 265.414565)"><g/></g></g><g fill="#545454" fill-opacity="1"><g transform="translate(182.639028, 265.414565)"><g><path d="M 3.1875 0 L 1.84375 0 L 1.84375 -7.484375 L 0.40625 -7.484375 L 0.40625 -8.671875 L 1.84375 -8.671875 L 1.84375 -9.609375 C 1.84375 -11.171875 2.59375 -11.953125 4.09375 -11.953125 L 5.203125 -11.953125 L 5.203125 -10.78125 L 4.390625 -10.78125 C 3.585938 -10.78125 3.1875 -10.332031 3.1875 -9.4375 L 3.1875 -8.671875 L 5.203125 -8.671875 L 5.203125 -7.484375 L 3.1875 -7.484375 Z M 3.1875 0 "/></g></g></g><g fill="#545454" fill-opacity="1"><g transform="translate(188.168706, 265.414565)"><g><path d="M 4.984375 0.15625 C 4.160156 0.15625 3.425781 -0.0351562 2.78125 -0.421875 C 2.144531 -0.804688 1.644531 -1.34375 1.28125 -2.03125 C 0.925781 -2.71875 0.75 -3.5 0.75 -4.375 C 0.75 -5.226562 0.925781 -5.988281 1.28125 -6.65625 C 1.644531 -7.320312 2.144531 -7.847656 2.78125 -8.234375 C 3.425781 -8.628906 4.160156 -8.828125 4.984375 -8.828125 C 5.804688 -8.828125 6.539062 -8.628906 7.1875 -8.234375 C 7.832031 -7.847656 8.335938 -7.320312 8.703125 -6.65625 C 9.066406 -5.988281 9.25 -5.226562 9.25 -4.375 C 9.25 -3.507812 9.066406 -2.734375 8.703125 -2.046875 C 8.347656 -1.359375 7.847656 -0.816406 7.203125 -0.421875 C 6.554688 -0.0351562 5.816406 0.15625 4.984375 0.15625 Z M 4.984375 -1.015625 C 5.535156 -1.015625 6.03125 -1.160156 6.46875 -1.453125 C 6.90625 -1.742188 7.253906 -2.144531 7.515625 -2.65625 C 7.773438 -3.164062 7.90625 -3.738281 7.90625 -4.375 C 7.90625 -4.988281 7.773438 -5.539062 7.515625 -6.03125 C 7.265625 -6.53125 6.921875 -6.921875 6.484375 -7.203125 C 6.046875 -7.492188 5.546875 -7.640625 4.984375 -7.640625 C 4.429688 -7.640625 3.9375 -7.5 3.5 -7.21875 C 3.0625 -6.9375 2.710938 -6.546875 2.453125 -6.046875 C 2.203125 -5.554688 2.078125 -5 2.078125 -4.375 C 2.078125 -3.726562 2.207031 -3.148438 2.46875 -2.640625 C 2.726562 -2.128906 3.078125 -1.726562 3.515625 -1.4375 C 3.953125 -1.15625 4.441406 -1.015625 4.984375 -1.015625 Z M 4.984375 -1.015625 "/></g></g></g><g fill="#545454" fill-opacity="1"><g transform="translate(198.178544, 265.414565)"><g><path d="M 2.4375 0 L 1.109375 0 L 1.109375 -8.671875 L 2.4375 -8.671875 L 2.4375 -7.46875 C 2.84375 -7.96875 3.269531 -8.316406 3.71875 -8.515625 C 4.175781 -8.722656 4.695312 -8.828125 5.28125 -8.828125 L 5.34375 -8.828125 L 5.34375 -7.484375 L 4.890625 -7.484375 C 4.191406 -7.484375 3.632812 -7.273438 3.21875 -6.859375 C 2.96875 -6.617188 2.773438 -6.3125 2.640625 -5.9375 C 2.503906 -5.5625 2.4375 -5.101562 2.4375 -4.5625 Z M 2.4375 0 "/></g></g></g><g fill="#545454" fill-opacity="1"><g transform="translate(203.864877, 265.414565)"><g/></g></g><g fill="#545454" fill-opacity="1"><g transform="translate(208.251026, 265.414565)"><g><path d="M 5.5625 0.15625 C 4.78125 0.15625 4.035156 0.03125 3.328125 -0.21875 C 2.628906 -0.476562 2.039062 -0.882812 1.5625 -1.4375 C 1.09375 -2 0.789062 -2.726562 0.65625 -3.625 L 2.109375 -3.625 C 2.234375 -2.988281 2.476562 -2.488281 2.84375 -2.125 C 3.21875 -1.757812 3.648438 -1.5 4.140625 -1.34375 C 4.640625 -1.195312 5.132812 -1.125 5.625 -1.125 C 6.457031 -1.125 7.113281 -1.296875 7.59375 -1.640625 C 8.070312 -1.992188 8.3125 -2.53125 8.3125 -3.25 C 8.3125 -3.675781 8.21875 -4.023438 8.03125 -4.296875 C 7.84375 -4.566406 7.59375 -4.785156 7.28125 -4.953125 C 6.96875 -5.117188 6.613281 -5.253906 6.21875 -5.359375 C 5.832031 -5.460938 5.425781 -5.5625 5 -5.65625 C 4.53125 -5.75 4.066406 -5.859375 3.609375 -5.984375 C 3.160156 -6.109375 2.75 -6.28125 2.375 -6.5 C 2 -6.71875 1.695312 -7.015625 1.46875 -7.390625 C 1.25 -7.765625 1.140625 -8.242188 1.140625 -8.828125 C 1.140625 -9.503906 1.300781 -10.085938 1.625 -10.578125 C 1.957031 -11.066406 2.414062 -11.441406 3 -11.703125 C 3.59375 -11.972656 4.28125 -12.109375 5.0625 -12.109375 C 5.738281 -12.109375 6.382812 -11.988281 7 -11.75 C 7.613281 -11.519531 8.132812 -11.15625 8.5625 -10.65625 C 9 -10.15625 9.28125 -9.492188 9.40625 -8.671875 L 8.015625 -8.671875 C 7.898438 -9.210938 7.6875 -9.640625 7.375 -9.953125 C 7.070312 -10.265625 6.71875 -10.488281 6.3125 -10.625 C 5.90625 -10.757812 5.484375 -10.828125 5.046875 -10.828125 C 4.242188 -10.828125 3.628906 -10.65625 3.203125 -10.3125 C 2.785156 -9.976562 2.578125 -9.523438 2.578125 -8.953125 C 2.578125 -8.472656 2.722656 -8.097656 3.015625 -7.828125 C 3.304688 -7.554688 3.679688 -7.347656 4.140625 -7.203125 C 4.609375 -7.066406 5.109375 -6.941406 5.640625 -6.828125 C 6.128906 -6.722656 6.617188 -6.601562 7.109375 -6.46875 C 7.597656 -6.332031 8.039062 -6.144531 8.4375 -5.90625 C 8.832031 -5.664062 9.148438 -5.34375 9.390625 -4.9375 C 9.628906 -4.53125 9.75 -4 9.75 -3.34375 C 9.75 -2.28125 9.390625 -1.429688 8.671875 -0.796875 C 7.960938 -0.160156 6.925781 0.15625 5.5625 0.15625 Z M 5.5625 0.15625 "/></g></g></g><g fill="#545454" fill-opacity="1"><g transform="translate(218.793452, 265.414565)"><g><path d="M 2.4375 0 L 1.109375 0 L 1.109375 -8.671875 L 2.4375 -8.671875 L 2.4375 -7.3125 C 2.882812 -7.882812 3.304688 -8.28125 3.703125 -8.5 C 4.109375 -8.71875 4.546875 -8.828125 5.015625 -8.828125 C 5.566406 -8.828125 6.066406 -8.695312 6.515625 -8.4375 C 6.972656 -8.175781 7.269531 -7.769531 7.40625 -7.21875 C 7.738281 -7.851562 8.144531 -8.28125 8.625 -8.5 C 9.113281 -8.71875 9.625 -8.828125 10.15625 -8.828125 C 11.132812 -8.828125 11.859375 -8.546875 12.328125 -7.984375 C 12.804688 -7.421875 13.046875 -6.640625 13.046875 -5.640625 L 13.046875 0 L 11.703125 0 L 11.703125 -5.328125 C 11.703125 -6.078125 11.546875 -6.648438 11.234375 -7.046875 C 10.929688 -7.441406 10.503906 -7.640625 9.953125 -7.640625 C 9.640625 -7.640625 9.367188 -7.585938 9.140625 -7.484375 C 8.910156 -7.378906 8.710938 -7.238281 8.546875 -7.0625 C 8.242188 -6.738281 8.03125 -6.316406 7.90625 -5.796875 C 7.789062 -5.285156 7.734375 -4.660156 7.734375 -3.921875 L 7.734375 0 L 6.40625 0 L 6.40625 -5.328125 C 6.40625 -6.066406 6.242188 -6.632812 5.921875 -7.03125 C 5.597656 -7.4375 5.171875 -7.640625 4.640625 -7.640625 C 4.347656 -7.640625 4.082031 -7.582031 3.84375 -7.46875 C 3.613281 -7.363281 3.410156 -7.210938 3.234375 -7.015625 C 2.972656 -6.722656 2.773438 -6.335938 2.640625 -5.859375 C 2.503906 -5.390625 2.4375 -4.742188 2.4375 -3.921875 Z M 2.4375 0 "/></g></g></g><g fill="#545454" fill-opacity="1"><g transform="translate(232.876131, 265.414565)"><g><path d="M 3.578125 0.15625 C 2.703125 0.15625 2.007812 -0.0625 1.5 -0.5 C 1 -0.9375 0.75 -1.535156 0.75 -2.296875 C 0.75 -3.054688 1.03125 -3.65625 1.59375 -4.09375 C 2.050781 -4.457031 2.71875 -4.726562 3.59375 -4.90625 L 6.671875 -5.5 C 6.671875 -6.175781 6.492188 -6.691406 6.140625 -7.046875 C 5.742188 -7.441406 5.210938 -7.640625 4.546875 -7.640625 C 4.015625 -7.640625 3.550781 -7.5 3.15625 -7.21875 C 2.757812 -6.9375 2.507812 -6.550781 2.40625 -6.0625 L 1.078125 -6.0625 C 1.179688 -6.664062 1.398438 -7.171875 1.734375 -7.578125 C 2.078125 -7.992188 2.492188 -8.304688 2.984375 -8.515625 C 3.484375 -8.722656 4.007812 -8.828125 4.5625 -8.828125 C 5.0625 -8.828125 5.53125 -8.753906 5.96875 -8.609375 C 6.414062 -8.460938 6.789062 -8.238281 7.09375 -7.9375 C 7.394531 -7.632812 7.609375 -7.300781 7.734375 -6.9375 C 7.867188 -6.570312 7.945312 -6.222656 7.96875 -5.890625 C 8 -5.566406 8.015625 -5.304688 8.015625 -5.109375 L 8.015625 0 L 6.671875 0 L 6.671875 -1.359375 C 6.367188 -0.921875 6.019531 -0.582031 5.625 -0.34375 C 5.332031 -0.164062 5.015625 -0.0390625 4.671875 0.03125 C 4.335938 0.113281 3.972656 0.15625 3.578125 0.15625 Z M 3.734375 -1.015625 C 4.265625 -1.015625 4.722656 -1.113281 5.109375 -1.3125 C 5.722656 -1.632812 6.140625 -2.050781 6.359375 -2.5625 C 6.578125 -3.082031 6.6875 -3.703125 6.6875 -4.421875 L 3.875 -3.859375 C 3.226562 -3.734375 2.75 -3.53125 2.4375 -3.25 C 2.195312 -3.007812 2.078125 -2.703125 2.078125 -2.328125 C 2.078125 -1.929688 2.226562 -1.613281 2.53125 -1.375 C 2.832031 -1.132812 3.234375 -1.015625 3.734375 -1.015625 Z M 3.734375 -1.015625 "/></g></g></g><g fill="#545454" fill-opacity="1"><g transform="translate(241.899077, 265.414565)"><g><path d="M 2.4375 0 L 1.109375 0 L 1.109375 -8.671875 L 2.4375 -8.671875 L 2.4375 -7.46875 C 2.84375 -7.96875 3.269531 -8.316406 3.71875 -8.515625 C 4.175781 -8.722656 4.695312 -8.828125 5.28125 -8.828125 L 5.34375 -8.828125 L 5.34375 -7.484375 L 4.890625 -7.484375 C 4.191406 -7.484375 3.632812 -7.273438 3.21875 -6.859375 C 2.96875 -6.617188 2.773438 -6.3125 2.640625 -5.9375 C 2.503906 -5.5625 2.4375 -5.101562 2.4375 -4.5625 Z M 2.4375 0 "/></g></g></g><g fill="#545454" fill-opacity="1"><g transform="translate(247.585409, 265.414565)"><g><path d="M 5.078125 0 L 3.875 0 C 3.445312 0 3.078125 -0.0546875 2.765625 -0.171875 C 2.453125 -0.296875 2.210938 -0.515625 2.046875 -0.828125 C 1.890625 -1.148438 1.8125 -1.597656 1.8125 -2.171875 L 1.8125 -7.484375 L 0.421875 -7.484375 L 0.421875 -8.671875 L 1.8125 -8.671875 L 1.8125 -11.953125 L 3.15625 -11.953125 L 3.15625 -8.671875 L 5.09375 -8.671875 L 5.09375 -7.484375 L 3.15625 -7.484375 L 3.15625 -2.4375 C 3.15625 -2.1875 3.171875 -1.960938 3.203125 -1.765625 C 3.242188 -1.578125 3.335938 -1.429688 3.484375 -1.328125 C 3.628906 -1.222656 3.863281 -1.171875 4.1875 -1.171875 L 5.078125 -1.171875 Z M 5.078125 0 "/></g></g></g><g fill="#545454" fill-opacity="1"><g transform="translate(253.24041, 265.414565)"><g/></g></g><g fill="#545454" fill-opacity="1"><g transform="translate(257.62656, 265.414565)"><g><path d="M 8.96875 0 L 1.234375 0 L 1.234375 -11.953125 L 8.96875 -11.953125 L 8.96875 -10.65625 L 2.6875 -10.65625 L 2.6875 -6.640625 L 8.234375 -6.640625 L 8.234375 -5.359375 L 2.6875 -5.359375 L 2.6875 -1.296875 L 8.96875 -1.296875 Z M 8.96875 0 "/></g></g></g><g fill="#545454" fill-opacity="1"><g transform="translate(267.276103, 265.414565)"><g><path d="M 2.4375 0 L 1.109375 0 L 1.109375 -8.671875 L 2.4375 -8.671875 L 2.4375 -7.3125 C 2.882812 -7.882812 3.304688 -8.28125 3.703125 -8.5 C 4.109375 -8.71875 4.546875 -8.828125 5.015625 -8.828125 C 5.691406 -8.828125 6.234375 -8.695312 6.640625 -8.4375 C 7.046875 -8.1875 7.351562 -7.859375 7.5625 -7.453125 C 7.78125 -7.066406 7.90625 -6.664062 7.9375 -6.25 C 7.96875 -5.832031 7.984375 -5.488281 7.984375 -5.21875 L 7.984375 0 L 6.640625 0 L 6.640625 -5.21875 C 6.640625 -6.132812 6.472656 -6.78125 6.140625 -7.15625 C 5.847656 -7.476562 5.40625 -7.640625 4.8125 -7.640625 C 4.457031 -7.640625 4.148438 -7.582031 3.890625 -7.46875 C 3.628906 -7.351562 3.410156 -7.195312 3.234375 -7 C 2.953125 -6.707031 2.75 -6.304688 2.625 -5.796875 C 2.5 -5.285156 2.4375 -4.585938 2.4375 -3.703125 Z M 2.4375 0 "/></g></g></g><g fill="#545454" fill-opacity="1"><g transform="translate(276.299048, 265.414565)"><g><path d="M 5.078125 0 L 3.875 0 C 3.445312 0 3.078125 -0.0546875 2.765625 -0.171875 C 2.453125 -0.296875 2.210938 -0.515625 2.046875 -0.828125 C 1.890625 -1.148438 1.8125 -1.597656 1.8125 -2.171875 L 1.8125 -7.484375 L 0.421875 -7.484375 L 0.421875 -8.671875 L 1.8125 -8.671875 L 1.8125 -11.953125 L 3.15625 -11.953125 L 3.15625 -8.671875 L 5.09375 -8.671875 L 5.09375 -7.484375 L 3.15625 -7.484375 L 3.15625 -2.4375 C 3.15625 -2.1875 3.171875 -1.960938 3.203125 -1.765625 C 3.242188 -1.578125 3.335938 -1.429688 3.484375 -1.328125 C 3.628906 -1.222656 3.863281 -1.171875 4.1875 -1.171875 L 5.078125 -1.171875 Z M 5.078125 0 "/></g></g></g><g fill="#545454" fill-opacity="1"><g transform="translate(281.954049, 265.414565)"><g><path d="M 4.96875 0.15625 C 4.144531 0.15625 3.410156 -0.0351562 2.765625 -0.421875 C 2.128906 -0.816406 1.632812 -1.351562 1.28125 -2.03125 C 0.925781 -2.707031 0.75 -3.46875 0.75 -4.3125 C 0.75 -5.09375 0.910156 -5.828125 1.234375 -6.515625 C 1.554688 -7.203125 2.03125 -7.757812 2.65625 -8.1875 C 3.289062 -8.613281 4.050781 -8.828125 4.9375 -8.828125 C 5.664062 -8.828125 6.347656 -8.664062 6.984375 -8.34375 C 7.617188 -8.019531 8.132812 -7.535156 8.53125 -6.890625 C 8.925781 -6.253906 9.125 -5.472656 9.125 -4.546875 L 9.125 -4.078125 L 2.0625 -4.078125 C 2.082031 -3.773438 2.140625 -3.488281 2.234375 -3.21875 C 2.453125 -2.539062 2.800781 -2.003906 3.28125 -1.609375 C 3.769531 -1.210938 4.328125 -1.015625 4.953125 -1.015625 C 5.609375 -1.015625 6.15625 -1.1875 6.59375 -1.53125 C 7.03125 -1.882812 7.34375 -2.304688 7.53125 -2.796875 L 8.96875 -2.796875 C 8.789062 -2.242188 8.519531 -1.742188 8.15625 -1.296875 C 7.800781 -0.859375 7.359375 -0.503906 6.828125 -0.234375 C 6.304688 0.0234375 5.6875 0.15625 4.96875 0.15625 Z M 2.1875 -5.25 L 7.6875 -5.25 C 7.675781 -5.394531 7.65625 -5.539062 7.625 -5.6875 C 7.59375 -5.832031 7.550781 -5.96875 7.5 -6.09375 C 7.269531 -6.59375 6.925781 -6.972656 6.46875 -7.234375 C 6.019531 -7.503906 5.519531 -7.640625 4.96875 -7.640625 C 4.394531 -7.640625 3.890625 -7.503906 3.453125 -7.234375 C 3.023438 -6.960938 2.6875 -6.582031 2.4375 -6.09375 C 2.375 -5.957031 2.320312 -5.816406 2.28125 -5.671875 C 2.238281 -5.523438 2.207031 -5.382812 2.1875 -5.25 Z M 2.1875 -5.25 "/></g></g></g><g fill="#545454" fill-opacity="1"><g transform="translate(291.807234, 265.414565)"><g><path d="M 2.4375 0 L 1.109375 0 L 1.109375 -8.671875 L 2.4375 -8.671875 L 2.4375 -7.46875 C 2.84375 -7.96875 3.269531 -8.316406 3.71875 -8.515625 C 4.175781 -8.722656 4.695312 -8.828125 5.28125 -8.828125 L 5.34375 -8.828125 L 5.34375 -7.484375 L 4.890625 -7.484375 C 4.191406 -7.484375 3.632812 -7.273438 3.21875 -6.859375 C 2.96875 -6.617188 2.773438 -6.3125 2.640625 -5.9375 C 2.503906 -5.5625 2.4375 -5.101562 2.4375 -4.5625 Z M 2.4375 0 "/></g></g></g><g fill="#545454" fill-opacity="1"><g transform="translate(297.493566, 265.414565)"><g><path d="M 5.296875 -8.828125 C 6.078125 -8.828125 6.753906 -8.632812 7.328125 -8.25 C 7.910156 -7.863281 8.359375 -7.335938 8.671875 -6.671875 C 8.992188 -6.003906 9.15625 -5.226562 9.15625 -4.34375 C 9.15625 -3.457031 8.992188 -2.675781 8.671875 -2 C 8.359375 -1.320312 7.910156 -0.789062 7.328125 -0.40625 C 6.753906 -0.03125 6.078125 0.15625 5.296875 0.15625 C 4.722656 0.15625 4.21875 0.0507812 3.78125 -0.15625 C 3.351562 -0.375 2.910156 -0.769531 2.453125 -1.34375 L 2.453125 3.296875 L 1.125 3.296875 L 1.125 -8.671875 L 2.453125 -8.671875 L 2.453125 -7.3125 C 2.898438 -7.882812 3.335938 -8.28125 3.765625 -8.5 C 4.191406 -8.71875 4.703125 -8.828125 5.296875 -8.828125 Z M 5.171875 -7.640625 C 4.640625 -7.640625 4.164062 -7.492188 3.75 -7.203125 C 3.332031 -6.921875 3.003906 -6.53125 2.765625 -6.03125 C 2.523438 -5.539062 2.40625 -4.976562 2.40625 -4.34375 C 2.40625 -3.707031 2.523438 -3.132812 2.765625 -2.625 C 3.003906 -2.125 3.332031 -1.726562 3.75 -1.4375 C 4.164062 -1.15625 4.640625 -1.015625 5.171875 -1.015625 C 5.710938 -1.015625 6.179688 -1.160156 6.578125 -1.453125 C 6.972656 -1.742188 7.273438 -2.140625 7.484375 -2.640625 C 7.703125 -3.148438 7.8125 -3.71875 7.8125 -4.34375 C 7.8125 -4.96875 7.703125 -5.523438 7.484375 -6.015625 C 7.273438 -6.515625 6.972656 -6.910156 6.578125 -7.203125 C 6.179688 -7.492188 5.710938 -7.640625 5.171875 -7.640625 Z M 5.171875 -7.640625 "/></g></g></g><g fill="#545454" fill-opacity="1"><g transform="translate(307.425068, 265.414565)"><g><path d="M 2.4375 0 L 1.109375 0 L 1.109375 -8.671875 L 2.4375 -8.671875 L 2.4375 -7.46875 C 2.84375 -7.96875 3.269531 -8.316406 3.71875 -8.515625 C 4.175781 -8.722656 4.695312 -8.828125 5.28125 -8.828125 L 5.34375 -8.828125 L 5.34375 -7.484375 L 4.890625 -7.484375 C 4.191406 -7.484375 3.632812 -7.273438 3.21875 -6.859375 C 2.96875 -6.617188 2.773438 -6.3125 2.640625 -5.9375 C 2.503906 -5.5625 2.4375 -5.101562 2.4375 -4.5625 Z M 2.4375 0 "/></g></g></g><g fill="#545454" fill-opacity="1"><g transform="translate(313.1114, 265.414565)"><g><path d="M 1.78125 -10.15625 C 1.5 -10.15625 1.257812 -10.25 1.0625 -10.4375 C 0.863281 -10.632812 0.765625 -10.867188 0.765625 -11.140625 C 0.765625 -11.410156 0.863281 -11.640625 1.0625 -11.828125 C 1.257812 -12.015625 1.5 -12.109375 1.78125 -12.109375 C 2.0625 -12.109375 2.300781 -12.015625 2.5 -11.828125 C 2.707031 -11.640625 2.8125 -11.410156 2.8125 -11.140625 C 2.8125 -10.867188 2.707031 -10.632812 2.5 -10.4375 C 2.300781 -10.25 2.0625 -10.15625 1.78125 -10.15625 Z M 2.4375 0 L 1.109375 0 L 1.109375 -8.671875 L 2.4375 -8.671875 Z M 2.4375 0 "/></g></g></g><g fill="#545454" fill-opacity="1"><g transform="translate(316.667311, 265.414565)"><g><path d="M 4.609375 0.15625 C 3.503906 0.15625 2.609375 -0.101562 1.921875 -0.625 C 1.234375 -1.15625 0.816406 -1.878906 0.671875 -2.796875 L 2.0625 -2.796875 C 2.175781 -2.265625 2.4375 -1.832031 2.84375 -1.5 C 3.257812 -1.175781 3.851562 -1.015625 4.625 -1.015625 C 5.207031 -1.015625 5.679688 -1.125 6.046875 -1.34375 C 6.421875 -1.570312 6.609375 -1.90625 6.609375 -2.34375 C 6.609375 -2.71875 6.492188 -3.003906 6.265625 -3.203125 C 6.035156 -3.398438 5.734375 -3.550781 5.359375 -3.65625 C 4.992188 -3.757812 4.597656 -3.851562 4.171875 -3.9375 C 3.796875 -4.007812 3.421875 -4.09375 3.046875 -4.1875 C 2.671875 -4.28125 2.332031 -4.410156 2.03125 -4.578125 C 1.726562 -4.742188 1.484375 -4.96875 1.296875 -5.25 C 1.117188 -5.53125 1.03125 -5.890625 1.03125 -6.328125 C 1.03125 -6.867188 1.164062 -7.328125 1.4375 -7.703125 C 1.71875 -8.078125 2.097656 -8.359375 2.578125 -8.546875 C 3.066406 -8.734375 3.601562 -8.828125 4.1875 -8.828125 C 5.125 -8.828125 5.90625 -8.582031 6.53125 -8.09375 C 7.15625 -7.601562 7.539062 -6.925781 7.6875 -6.0625 L 6.453125 -6.0625 C 6.316406 -6.613281 6.046875 -7.015625 5.640625 -7.265625 C 5.242188 -7.515625 4.757812 -7.640625 4.1875 -7.640625 C 3.613281 -7.640625 3.164062 -7.53125 2.84375 -7.3125 C 2.519531 -7.101562 2.359375 -6.8125 2.359375 -6.4375 C 2.359375 -6.132812 2.46875 -5.894531 2.6875 -5.71875 C 2.90625 -5.550781 3.1875 -5.421875 3.53125 -5.328125 C 3.875 -5.242188 4.242188 -5.160156 4.640625 -5.078125 C 5.023438 -5.003906 5.410156 -4.914062 5.796875 -4.8125 C 6.191406 -4.71875 6.550781 -4.582031 6.875 -4.40625 C 7.195312 -4.226562 7.457031 -3.988281 7.65625 -3.6875 C 7.851562 -3.382812 7.953125 -2.984375 7.953125 -2.484375 C 7.953125 -1.691406 7.660156 -1.050781 7.078125 -0.5625 C 6.492188 -0.0820312 5.671875 0.15625 4.609375 0.15625 Z M 4.609375 0.15625 "/></g></g></g><g fill="#545454" fill-opacity="1"><g transform="translate(325.392622, 265.414565)"><g><path d="M 4.96875 0.15625 C 4.144531 0.15625 3.410156 -0.0351562 2.765625 -0.421875 C 2.128906 -0.816406 1.632812 -1.351562 1.28125 -2.03125 C 0.925781 -2.707031 0.75 -3.46875 0.75 -4.3125 C 0.75 -5.09375 0.910156 -5.828125 1.234375 -6.515625 C 1.554688 -7.203125 2.03125 -7.757812 2.65625 -8.1875 C 3.289062 -8.613281 4.050781 -8.828125 4.9375 -8.828125 C 5.664062 -8.828125 6.347656 -8.664062 6.984375 -8.34375 C 7.617188 -8.019531 8.132812 -7.535156 8.53125 -6.890625 C 8.925781 -6.253906 9.125 -5.472656 9.125 -4.546875 L 9.125 -4.078125 L 2.0625 -4.078125 C 2.082031 -3.773438 2.140625 -3.488281 2.234375 -3.21875 C 2.453125 -2.539062 2.800781 -2.003906 3.28125 -1.609375 C 3.769531 -1.210938 4.328125 -1.015625 4.953125 -1.015625 C 5.609375 -1.015625 6.15625 -1.1875 6.59375 -1.53125 C 7.03125 -1.882812 7.34375 -2.304688 7.53125 -2.796875 L 8.96875 -2.796875 C 8.789062 -2.242188 8.519531 -1.742188 8.15625 -1.296875 C 7.800781 -0.859375 7.359375 -0.503906 6.828125 -0.234375 C 6.304688 0.0234375 5.6875 0.15625 4.96875 0.15625 Z M 2.1875 -5.25 L 7.6875 -5.25 C 7.675781 -5.394531 7.65625 -5.539062 7.625 -5.6875 C 7.59375 -5.832031 7.550781 -5.96875 7.5 -6.09375 C 7.269531 -6.59375 6.925781 -6.972656 6.46875 -7.234375 C 6.019531 -7.503906 5.519531 -7.640625 4.96875 -7.640625 C 4.394531 -7.640625 3.890625 -7.503906 3.453125 -7.234375 C 3.023438 -6.960938 2.6875 -6.582031 2.4375 -6.09375 C 2.375 -5.957031 2.320312 -5.816406 2.28125 -5.671875 C 2.238281 -5.523438 2.207031 -5.382812 2.1875 -5.25 Z M 2.1875 -5.25 "/></g></g></g><g fill="#545454" fill-opacity="1"><g transform="translate(335.245806, 265.414565)"><g><path d="M 4.609375 0.15625 C 3.503906 0.15625 2.609375 -0.101562 1.921875 -0.625 C 1.234375 -1.15625 0.816406 -1.878906 0.671875 -2.796875 L 2.0625 -2.796875 C 2.175781 -2.265625 2.4375 -1.832031 2.84375 -1.5 C 3.257812 -1.175781 3.851562 -1.015625 4.625 -1.015625 C 5.207031 -1.015625 5.679688 -1.125 6.046875 -1.34375 C 6.421875 -1.570312 6.609375 -1.90625 6.609375 -2.34375 C 6.609375 -2.71875 6.492188 -3.003906 6.265625 -3.203125 C 6.035156 -3.398438 5.734375 -3.550781 5.359375 -3.65625 C 4.992188 -3.757812 4.597656 -3.851562 4.171875 -3.9375 C 3.796875 -4.007812 3.421875 -4.09375 3.046875 -4.1875 C 2.671875 -4.28125 2.332031 -4.410156 2.03125 -4.578125 C 1.726562 -4.742188 1.484375 -4.96875 1.296875 -5.25 C 1.117188 -5.53125 1.03125 -5.890625 1.03125 -6.328125 C 1.03125 -6.867188 1.164062 -7.328125 1.4375 -7.703125 C 1.71875 -8.078125 2.097656 -8.359375 2.578125 -8.546875 C 3.066406 -8.734375 3.601562 -8.828125 4.1875 -8.828125 C 5.125 -8.828125 5.90625 -8.582031 6.53125 -8.09375 C 7.15625 -7.601562 7.539062 -6.925781 7.6875 -6.0625 L 6.453125 -6.0625 C 6.316406 -6.613281 6.046875 -7.015625 5.640625 -7.265625 C 5.242188 -7.515625 4.757812 -7.640625 4.1875 -7.640625 C 3.613281 -7.640625 3.164062 -7.53125 2.84375 -7.3125 C 2.519531 -7.101562 2.359375 -6.8125 2.359375 -6.4375 C 2.359375 -6.132812 2.46875 -5.894531 2.6875 -5.71875 C 2.90625 -5.550781 3.1875 -5.421875 3.53125 -5.328125 C 3.875 -5.242188 4.242188 -5.160156 4.640625 -5.078125 C 5.023438 -5.003906 5.410156 -4.914062 5.796875 -4.8125 C 6.191406 -4.71875 6.550781 -4.582031 6.875 -4.40625 C 7.195312 -4.226562 7.457031 -3.988281 7.65625 -3.6875 C 7.851562 -3.382812 7.953125 -2.984375 7.953125 -2.484375 C 7.953125 -1.691406 7.660156 -1.050781 7.078125 -0.5625 C 6.492188 -0.0820312 5.671875 0.15625 4.609375 0.15625 Z M 4.609375 0.15625 "/></g></g></g><g clip-path="url(#2b0804245f)"><g clip-path="url(#901176b2a8)"><path fill="#000000" d="M 126.25 114.292969 L 134.414062 114.292969 L 134.414062 118.730469 L 126.25 118.730469 Z M 126.25 114.292969 " fill-opacity="1" fill-rule="nonzero"/><path fill="#000000" d="M 134.414062 118.761719 L 126.25 118.761719 C 126.230469 118.761719 126.21875 118.746094 126.21875 118.730469 L 126.21875 114.292969 C 126.21875 114.277344 126.230469 114.265625 126.25 114.265625 L 134.414062 114.265625 C 134.433594 114.265625 134.445312 114.277344 134.445312 114.292969 L 134.445312 118.730469 C 134.445312 118.746094 134.433594 118.761719 134.414062 118.761719 Z M 126.277344 118.699219 L 134.386719 118.699219 L 134.386719 114.324219 L 126.277344 114.324219 Z M 126.277344 118.699219 " fill-opacity="1" fill-rule="nonzero"/></g></g><path stroke-linecap="round" transform="matrix(0.75, 0, 0, 0.75, 210.732163, 47.96511)" fill="none" stroke-linejoin="miter" d="M 68.091495 3.499645 L 35.794618 3.499645 C 27.232117 3.499645 19.018575 6.900687 12.961283 12.957979 C 6.903991 19.015271 3.497741 27.228813 3.497741 35.796522 L 3.497741 145.921529 " stroke="#000000" stroke-width="7" stroke-opacity="1" stroke-miterlimit="4"/><path stroke-linecap="round" transform="matrix(0.75, 0, 0, 0.75, 210.732163, 47.96511)" fill="none" stroke-linejoin="round" d="M 92.591496 3.499645 C 92.591496 9.29652 87.893579 13.999645 82.091496 13.999645 C 76.29462 13.999645 71.591495 9.29652 71.591495 3.499645 C 71.591495 -2.297231 76.29462 -7.000356 82.091496 -7.000356 C 87.893579 -7.000356 92.591496 -2.297231 92.591496 3.499645 " stroke="#000000" stroke-width="7" stroke-opacity="1" stroke-miterlimit="4"/><path stroke-linecap="round" transform="matrix(0, 0.75, -0.75, 0, 190.122239, 13.319943)" fill="none" stroke-linejoin="miter" d="M 28.000494 3.501528 L 192.115088 3.501528 " stroke="#000000" stroke-width="7" stroke-opacity="1" stroke-miterlimit="4"/><path stroke-linecap="round" transform="matrix(0, 0.75, -0.75, 0, 190.122239, 13.319943)" fill="none" stroke-linejoin="round" d="M 3.500493 3.501528 C 3.500493 -2.300556 8.19841 -6.998473 14.000493 -6.998473 C 19.797369 -6.998473 24.500494 -2.300556 24.500494 3.501528 C 24.500494 9.298403 19.797369 14.001528 14.000493 14.001528 C 8.19841 14.001528 3.500493 9.298403 3.500493 3.501528 " stroke="#000000" stroke-width="7" stroke-opacity="1" stroke-miterlimit="4"/><g clip-path="url(#0e0d4f0c53)"><g clip-path="url(#4002bb1200)"><path fill="#070404" d="M 244.332031 114.308594 L 252.5 114.308594 L 252.5 118.746094 L 244.332031 118.746094 Z M 244.332031 114.308594 " fill-opacity="1" fill-rule="nonzero"/><path fill="#070404" d="M 252.5 118.773438 L 244.332031 118.773438 C 244.316406 118.773438 244.300781 118.761719 244.300781 118.746094 L 244.300781 114.308594 C 244.300781 114.292969 244.316406 114.277344 244.332031 114.277344 L 252.5 114.277344 C 252.515625 114.277344 252.527344 114.292969 252.527344 114.308594 L 252.527344 118.746094 C 252.527344 118.761719 252.515625 118.773438 252.5 118.773438 Z M 244.363281 118.714844 L 252.46875 118.714844 L 252.46875 114.339844 L 244.363281 114.339844 Z M 244.363281 118.714844 " fill-opacity="1" fill-rule="nonzero"/></g></g><path stroke-linecap="round" transform="matrix(0.75, 0, 0, 0.75, 93.213354, 47.96511)" fill="none" stroke-linejoin="miter" d="M 28.001989 3.499645 L 59.970741 3.499645 C 68.449908 3.499645 76.585325 6.869437 82.580117 12.864229 C 88.574909 18.859021 91.944701 26.994438 91.944701 35.473605 L 91.944701 145.921529 " stroke="#000000" stroke-width="7" stroke-opacity="1" stroke-miterlimit="4"/><path stroke-linecap="round" transform="matrix(0.75, 0, 0, 0.75, 93.213354, 47.96511)" fill="none" stroke-linejoin="round" d="M 3.501987 3.499645 C 3.501987 -2.297231 8.199904 -7.000356 14.001988 -7.000356 C 19.798863 -7.000356 24.501989 -2.297231 24.501989 3.499645 C 24.501989 9.29652 19.798863 13.999645 14.001988 13.999645 C 8.199904 13.999645 3.501987 9.29652 3.501987 3.499645 " stroke="#000000" stroke-width="7" stroke-opacity="1" stroke-miterlimit="4"/><path stroke-linecap="butt" transform="matrix(0.75, 0, 0, 0.75, 1.04013, 114.257738)" fill="none" stroke-linejoin="miter" d="M 332.238181 3.000099 L 481.165274 3.000099 C 488.347566 3.000099 494.165275 8.817808 494.165275 16.0001 L 494.165275 255.677199 C 494.165275 262.859491 488.347566 268.6772 481.165274 268.6772 L 15.998577 268.6772 C 8.821493 268.6772 2.998576 262.859491 2.998576 255.677199 L 2.998576 16.0001 C 2.998576 8.817808 8.821493 3.000099 15.998577 3.000099 L 170.102754 3.000099 " stroke="#000000" stroke-width="6" stroke-opacity="1" stroke-miterlimit="4"/></svg>